<?xml version="1.0" standalone="no"?>
<!DOCTYPE svg PUBLIC "-//W3C//DTD SVG 1.1//EN" "http://www.w3.org/Graphics/SVG/1.1/DTD/svg11.dtd" >
<svg>
<metadata>
Created by FontForge 20110222 at Fri Nov 15 12:51:22 2013
 By Orthosie Webhosting
Copyright (c) 1985, 1987, 1997, 1998, 2001 Adobe Systems Incorporated.  All Rights Reserved.
</metadata>
<defs>
<font id="ITCLubalinGraphStdBook" horiz-adv-x="580" >
  <font-face 
    font-family="ITCLubalinGraphStdBook"
    font-weight="400"
    font-stretch="normal"
    units-per-em="1000"
    panose-1="2 6 5 2 2 2 5 2 4 4"
    ascent="719"
    descent="-281"
    x-height="525"
    cap-height="714"
    bbox="-154 -252 1160 982"
    underline-thickness="50"
    underline-position="-50"
    unicode-range="U+0020-FB02"
  />
<missing-glyph horiz-adv-x="500" 
d="M0 0v700h500v-700h-500zM250 395l170 255h-340zM280 350l170 -255v510zM80 50h340l-170 255zM50 605v-510l170 255z" />
    <glyph glyph-name="fi" unicode="fi" horiz-adv-x="500" 
d="M397 62h88v-62h-470v62h88v403h-88v64h88v9q1 39 3 58t13.5 45.5t34.5 46.5q43 40 126 45v-59q-45 -3 -73 -25q-17 -13 -25.5 -32t-9.5 -32.5t-2 -41.5v-14h227v-467zM397 714v-103h-66v103h66zM331 62v403h-162v-403h162z" />
    <glyph glyph-name="fl" unicode="fl" horiz-adv-x="500" 
d="M396 733v-671h88v-62h-469v62h88v403h-88v64h88v9q1 41 3.5 60.5t15 46.5t37.5 47q49 41 133 41h104zM169 465v-403h161v612h-25q-64 0 -98 -25q-18 -14 -26.5 -34t-9.5 -33t-2 -44v-9h90v-64h-90z" />
    <glyph glyph-name=".notdef" horiz-adv-x="500" 
d="M0 0v700h500v-700h-500zM250 395l170 255h-340zM280 350l170 -255v510zM80 50h340l-170 255zM50 605v-510l170 255z" />
    <glyph glyph-name=".null" horiz-adv-x="0" 
 />
    <glyph glyph-name="nonmarkingreturn" horiz-adv-x="333" 
 />
    <glyph glyph-name="space" unicode=" " horiz-adv-x="300" 
 />
    <glyph glyph-name="exclam" unicode="!" horiz-adv-x="140" 
d="M105 109v-109h-69v109h69zM105 714v-531h-69v531h69z" />
    <glyph glyph-name="quotedbl" unicode="&#x22;" horiz-adv-x="280" 
d="M227 487h-48l-11 227h70zM94 487h-47l-11 227h70z" />
    <glyph glyph-name="numbersign" unicode="#" 
d="M388 260l-36 -260h-47l36 260h-122l-36 -260h-47l35 260h-142v46h151l15 117h-139v47h147l34 244h47l-33 -244h121l35 244h46l-33 -244h131v-47h-140l-14 -117h129v-46h-138zM364 423h-121l-15 -117h121z" />
    <glyph glyph-name="dollar" unicode="$" 
d="M471 544h-57q0 40 -30.5 75t-71.5 44v-263q89 -13 145 -68t56 -142q0 -84 -58.5 -141.5t-142.5 -64.5v-93h-61v93q-43 14 -69.5 31t-48.5 50v-65h-57v192h57q1 -50 34.5 -88.5t83.5 -55.5v296l-32 10q-72 21 -109 62q-44 50 -44 122q0 77 54 130.5t131 58.5v98h61v-98
q74 -17 102 -72v58h57v-169zM251 413v250q-46 -2 -79 -38.5t-33 -84.5q0 -51 30.5 -83t81.5 -44zM312 331v-283q55 7 91.5 46t36.5 95t-35.5 92.5t-92.5 49.5z" />
    <glyph glyph-name="percent" unicode="%" horiz-adv-x="800" 
d="M605 -13q-70 0 -118 49.5t-48 119.5q0 68 49.5 115t116.5 47q68 0 116.5 -48.5t48.5 -116.5q0 -69 -48 -117.5t-117 -48.5zM605 46q45 0 76 31.5t31 76.5q0 44 -31 75t-75 31t-76 -30t-32 -74q0 -46 31 -78t76 -32zM201 398q-70 0 -117.5 49.5t-47.5 119.5q0 68 49.5 115
t116.5 47t115.5 -48.5t48.5 -116.5q0 -69 -48 -117.5t-117 -48.5zM202 456q45 0 76 32t31 77q0 43 -31.5 74.5t-74.5 31.5q-44 0 -76.5 -30t-32.5 -74q0 -46 31 -78.5t77 -32.5zM275 0h-58l317 714h57z" />
    <glyph glyph-name="ampersand" unicode="&#x26;" horiz-adv-x="720" 
d="M679 35l-46 -46l-163 159q-39 -79 -90.5 -120.5t-131.5 -41.5q-87 0 -149.5 60.5t-62.5 147.5q0 128 168 212l-14 13q-43 40 -63 72t-20 79q0 69 49 116t119 47q67 0 116 -46.5t49 -113.5q0 -105 -138 -173l159 -152l94 203h129v-62h-87l-89 -188zM242 457l19 -17
q33 16 55 30t42.5 40.5t20.5 57.5q0 43 -29.5 74t-73.5 31q-43 0 -73 -29t-30 -72q0 -25 12 -48t21 -32t36 -35zM423 193l-175 168q-141 -62 -141 -165q0 -61 42.5 -104.5t103.5 -43.5q35 0 62 11t47 34t32.5 44t28.5 56z" />
    <glyph glyph-name="quotesingle" unicode="'" horiz-adv-x="140" 
d="M94 487h-47l-11 227h70z" />
    <glyph glyph-name="parenleft" unicode="(" horiz-adv-x="340" 
d="M300 -52v-81q-120 56 -192 173t-72 252q0 149 85 269q80 115 179 153v-79q-89 -56 -139.5 -147t-50.5 -195q0 -105 51 -198t139 -147z" />
    <glyph glyph-name="parenright" unicode=")" horiz-adv-x="340" 
d="M36 635v79q100 -40 179 -153q85 -120 85 -269q0 -135 -72 -252t-192 -173v81q88 54 139 147t51 198q0 104 -50.5 195t-139.5 147z" />
    <glyph glyph-name="asterisk" unicode="*" horiz-adv-x="340" 
d="M310 605v-42h-102l52 -83l-36 -22l-51 87l-48 -90l-36 20l50 88l-103 -2v42h101l-55 86l36 23l54 -91l52 93l37 -21l-53 -90z" />
    <glyph glyph-name="plus" unicode="+" horiz-adv-x="660" 
d="M71 388h223v223h62v-223h223v-61h-223v-223h-62v223h-223v61z" />
    <glyph glyph-name="comma" unicode="," horiz-adv-x="300" 
d="M144 -97h-63l74 184h63z" />
    <glyph glyph-name="hyphen" unicode="-" horiz-adv-x="300" 
d="M274 228h-248v66h248v-66z" />
    <glyph glyph-name="period" unicode="." horiz-adv-x="300" 
d="M185 109v-109h-69v109h69z" />
    <glyph glyph-name="slash" unicode="/" 
d="M89 -195h-53l445 909h54z" />
    <glyph glyph-name="zero" unicode="0" 
d="M536 471v-223q0 -110 -63 -180q-77 -82 -186 -82q-101 0 -176 73q-73 72 -73 189v223q0 111 64 179q77 83 185 83q103 0 176 -73q73 -72 73 -189zM109 470v-222q0 -80 36 -127q51 -70 142 -70q43 0 82 19.5t64 53.5q32 46 32 124v222q0 82 -35 127q-51 70 -143 70
q-43 0 -82 -19.5t-63 -54.5q-33 -46 -33 -123z" />
    <glyph glyph-name="one" unicode="1" 
d="M344 714v-652h94v-62h-258v62h94v595h-138v57h208z" />
    <glyph glyph-name="two" unicode="2" 
d="M450 173h64v-173h-455v62l302 294q28 27 43 44.5t29 47t14 60.5q0 66 -45.5 111t-111.5 45q-70 0 -115.5 -50t-41.5 -120h-69q-4 100 63.5 169.5t167.5 69.5q41 0 83.5 -17t72.5 -45q66 -66 66 -165q0 -43 -18 -81.5t-37.5 -60.5t-58.5 -60l-252 -242h299v111z" />
    <glyph glyph-name="three" unicode="3" 
d="M171 560h-67q1 74 56.5 123.5t130.5 49.5q76 0 130.5 -49.5t54.5 -125.5q0 -51 -25 -92.5t-71 -59.5q63 -20 101.5 -74.5t38.5 -121.5q0 -94 -68 -159t-161 -65q-97 0 -165 61t-73 157h73q5 -64 50 -109t108 -45q69 0 115.5 48.5t46.5 117.5q0 68 -51 113.5t-120 45.5
h-36v56h34q59 0 93 27q43 34 43 92q0 53 -34.5 88t-86.5 35q-47 0 -81 -33t-36 -80z" />
    <glyph glyph-name="four" unicode="4" 
d="M549 233v-58h-104v-113h94v-62h-257v62h93v113h-351v58l335 481h86v-481h104zM375 233v396l-272 -396h272z" />
    <glyph glyph-name="five" unicode="5" 
d="M33 194h74q12 -63 62 -103t114 -40q75 0 130 52t55 126q0 77 -52.5 130t-130.5 53q-96 0 -149 -75l-63 15l66 362h353v-62h-296l-45 -230q64 53 149 53q99 0 169.5 -71t70.5 -170q0 -106 -75 -177t-181 -71q-96 0 -165.5 57.5t-85.5 150.5z" />
    <glyph glyph-name="six" unicode="6" 
d="M303 714h79l-183 -267q50 34 104 34q98 0 166.5 -70.5t68.5 -168.5q0 -107 -71.5 -181.5t-177.5 -74.5q-107 0 -180.5 75.5t-73.5 182.5q0 75 58 162zM287 55q75 0 129 53t54 128q0 76 -53 131t-130 55q-76 0 -129.5 -54t-53.5 -129q0 -76 53.5 -130t129.5 -54z" />
    <glyph glyph-name="seven" unicode="7" 
d="M70 714h434v-67l-293 -647h-78l299 652h-293v-129h-69v191z" />
    <glyph glyph-name="eight" unicode="8" 
d="M198 396q-47 20 -74 60.5t-27 92.5q0 80 56.5 132t137.5 52q73 0 127 -52t54 -125q0 -109 -97 -156q61 -20 100.5 -74t39.5 -118q0 -94 -67 -158t-161 -64q-95 0 -161.5 61.5t-66.5 154.5q0 66 38.5 119.5t100.5 74.5zM284 424q51 0 87 36.5t36 86.5q0 51 -35.5 87.5
t-86.5 36.5t-87 -36t-36 -87t35.5 -87.5t86.5 -36.5zM286 49q65 0 110 46t45 111q0 64 -46 110t-111 46q-64 0 -109.5 -46t-45.5 -110q0 -66 46 -111.5t111 -45.5z" />
    <glyph glyph-name="nine" unicode="9" 
d="M277 0h-87l184 264q-53 -33 -101 -33q-99 0 -169 73t-70 172q0 105 75 181t180 76q106 0 179 -76t73 -181q0 -82 -58 -168zM289 293q77 0 129.5 55.5t52.5 132.5q0 74 -53.5 128t-127.5 54q-76 0 -131 -53t-55 -129q0 -78 53.5 -133t131.5 -55z" />
    <glyph glyph-name="colon" unicode=":" horiz-adv-x="300" 
d="M185 109v-109h-69v109h69zM185 475v-109h-69v109h69z" />
    <glyph glyph-name="semicolon" unicode=";" horiz-adv-x="300" 
d="M109 -97h-63l74 184h63zM182 475v-109h-64v109h64z" />
    <glyph glyph-name="less" unicode="&#x3c;" horiz-adv-x="660" 
d="M595 146v-63l-540 246v58l540 248v-63l-470 -215z" />
    <glyph glyph-name="equal" unicode="=" horiz-adv-x="660" 
d="M71 463h508v-61h-508v61zM71 314h508v-61h-508v61z" />
    <glyph glyph-name="greater" unicode="&#x3e;" horiz-adv-x="660" 
d="M55 146l470 211l-470 215v63l540 -248v-58l-540 -246v63z" />
    <glyph glyph-name="question" unicode="?" horiz-adv-x="520" 
d="M299 109v-109h-70v109h70zM299 180h-70q0 64 25 109.5t78 93.5q29 26 41.5 39.5t24.5 39t12 55.5q0 63 -45 107.5t-108 44.5t-107 -46t-44 -109h-70q-1 92 64 158.5t158 66.5q92 0 158 -64t66 -156q0 -40 -14.5 -73t-30.5 -50.5t-52 -51.5q-42 -40 -63 -77t-23 -87z" />
    <glyph glyph-name="at" unicode="@" horiz-adv-x="900" 
d="M762 150l19 -29q-54 -67 -133.5 -101t-171.5 -34q-75 0 -151.5 26.5t-131.5 72.5q-58 50 -89.5 122t-31.5 150q0 156 119.5 266t281.5 110q142 0 244.5 -86.5t102.5 -220.5q0 -105 -54 -175q-30 -39 -75 -65t-92 -26q-59 0 -62 60q-56 -65 -140 -65q-67 0 -109 50
t-42 117q0 94 69.5 170.5t164.5 76.5q41 0 74 -21t45 -58l16 49h47l-75 -256q-11 -35 -11 -51q0 -34 37 -34q28 0 59.5 19t51.5 43q57 62 57 164q0 112 -87 191q-90 80 -224 80q-141 0 -247 -95q-108 -99 -108 -243q0 -147 103.5 -240t257.5 -93q82 0 159 33t127 93z
M408 199q50 0 90 34q28 25 48 78q31 90 31 128q0 40 -28 64t-70 24q-77 0 -130.5 -66t-53.5 -142q0 -51 30.5 -85.5t82.5 -34.5z" />
    <glyph glyph-name="A" unicode="A" horiz-adv-x="820" 
d="M816 0h-262v66h93l-71 164h-331l-73 -164h90v-66h-255v66h89l259 582h-95v66h187l280 -648h89v-66zM555 289l-143 344l-146 -344h289z" />
    <glyph glyph-name="B" unicode="B" 
d="M24 714h294q92 0 138 -35q70 -53 70 -141q0 -50 -27 -92t-72 -64q62 -23 97.5 -73t35.5 -116q0 -88 -62 -145q-32 -29 -69.5 -38.5t-92.5 -9.5h-312v66h91v582h-91v66zM187 406h110q30 0 43 1t34 7.5t38 20.5q42 35 42 95q0 64 -47 98q-7 5 -13.5 8.5t-15.5 5.5t-14 3.5
t-16.5 2t-15 0.5h-17h-15.5h-113v-242zM187 66h123q92 0 129 24q49 31 49 112q0 75 -57 115q-18 13 -42 19t-40.5 7t-46.5 1h-115v-278z" />
    <glyph glyph-name="C" unicode="C" horiz-adv-x="740" 
d="M708 540h-66q-39 58 -105.5 89.5t-140.5 31.5q-126 0 -213.5 -86.5t-87.5 -211.5t86.5 -215t212.5 -90q75 0 141 34t109 95h80q-45 -92 -134.5 -146.5t-193.5 -54.5q-73 0 -142.5 29t-121.5 80q-109 108 -109 268q0 150 112 267q47 49 115.5 76t144.5 27q154 0 247 -103
v84h66v-174z" />
    <glyph glyph-name="D" unicode="D" horiz-adv-x="720" 
d="M115 66v582h-92v66h318q79 0 139 -22t115 -75q106 -104 106 -262q0 -146 -102 -254q-53 -55 -114.5 -78t-143.5 -23h-318v66h92zM187 66h140q71 0 123 16.5t95 62.5q39 41 61.5 97.5t22.5 113.5q0 62 -23.5 120.5t-66.5 99.5q-45 42 -92.5 57t-116.5 15h-143v-582z" />
    <glyph glyph-name="E" unicode="E" horiz-adv-x="560" 
d="M455 184h72v-184h-503v66h91v582h-91v66h503v-184h-72v118h-268v-258h276v-59h-276v-265h268v118z" />
    <glyph glyph-name="F" unicode="F" horiz-adv-x="560" 
d="M187 329v-263h92v-66h-255v66h91v582h-91v66h504v-186h-72v120h-269v-260h272v-59h-272z" />
    <glyph glyph-name="G" unicode="G" horiz-adv-x="780" 
d="M722 535h-66q-52 63 -117 94q-64 33 -141 33q-126 0 -214.5 -87t-88.5 -213t87 -215t214 -89q102 0 181.5 59t105.5 156h-358v62h437v-335h-66v166q-44 -85 -125 -132.5t-178 -47.5q-93 0 -181 50t-134 130q-55 95 -55 196q0 77 28.5 144.5t77.5 114.5q118 112 271 112
q73 0 141 -29.5t115 -82.5v93h66v-179z" />
    <glyph glyph-name="H" unicode="H" horiz-adv-x="720" 
d="M542 389v259h-91v66h254v-66h-91v-582h91v-66h-254v66h91v267h-355v-267h92v-66h-255v66h91v582h-91v66h255v-66h-92v-259h355z" />
    <glyph glyph-name="I" unicode="I" horiz-adv-x="300" 
d="M187 648v-582h91v-66h-254v66h91v582h-91v66h254v-66h-91z" />
    <glyph glyph-name="J" unicode="J" horiz-adv-x="520" 
d="M20 164h75q5 -47 37 -79t79 -32q56 0 93 47q13 16 19.5 38.5t7 36t0.5 43.5v430h-92v66h255v-66h-91v-445q0 -50 -7.5 -81.5t-32.5 -64.5q-54 -71 -154 -71q-78 0 -132.5 50.5t-56.5 127.5z" />
    <glyph glyph-name="K" unicode="K" horiz-adv-x="700" 
d="M676 66v-66h-262v66h83l-310 294v-294h91v-66h-254v66h91v582h-91v66h254v-66h-91v-265l294 265h-80v66h258v-66h-86l-307 -275l326 -307h84z" />
    <glyph glyph-name="L" unicode="L" horiz-adv-x="520" 
d="M421 184h72v-184h-469v66h91v582h-91v66h254v-66h-91v-582h234v118z" />
    <glyph glyph-name="M" unicode="M" horiz-adv-x="980" 
d="M182 620v-554h94v-66h-257v66h91v582h-91v66h200l259 -606l284 606h198v-66h-92v-582h92v-66h-256v66h92v556l-292 -622h-56z" />
    <glyph glyph-name="N" unicode="N" horiz-adv-x="800" 
d="M688 648v-648h-74l-427 597v-531h92v-66h-255v66h91v582h-91v66h164l428 -600v534h-91v66h254v-66h-91z" />
    <glyph glyph-name="O" unicode="O" horiz-adv-x="800" 
d="M400 -14q-156 0 -266.5 109t-110.5 264q0 156 110 265t267 109q154 0 264 -108.5t110 -260.5q0 -157 -109 -267.5t-265 -110.5zM399 57q126 1 214.5 90t88.5 214q0 123 -88.5 211.5t-213.5 88.5q-126 0 -215.5 -88t-89.5 -212q0 -126 88.5 -214.5t215.5 -88.5v-1z" />
    <glyph glyph-name="P" unicode="P" 
d="M187 282v-216h91v-66h-254v66h91v582h-91v66h292q103 0 166 -46q39 -29 60.5 -74t21.5 -94q0 -95 -69 -161q-35 -34 -75 -45.5t-97 -11.5h-136zM187 348h129q81 0 121 33q55 46 55 117q0 70 -57 116q-45 34 -120 34h-128v-300z" />
    <glyph glyph-name="Q" unicode="Q" horiz-adv-x="860" 
d="M790 126h57v-146q-124 -2 -230 73q-101 -67 -219 -67q-157 0 -265 109.5t-108 265.5q0 154 108.5 263t262.5 109q157 0 267.5 -109t110.5 -264q0 -75 -28.5 -145t-82.5 -119q66 -43 127 -50v80zM607 143q95 86 95 213q0 128 -88 216.5t-216 88.5q-124 0 -212.5 -87.5
t-88.5 -210.5q0 -31 15 -82q80 26 154 26q98 0 176 -42t165 -122zM560 103l-20 17q-80 70 -130 93q-72 35 -146 35q-71 0 -135 -26q37 -75 110.5 -119.5t157.5 -44.5q95 0 163 45z" />
    <glyph glyph-name="R" unicode="R" horiz-adv-x="640" 
d="M624 66v-66h-139l-221 308h27q86 0 121 12q17 6 32 15q37 23 58.5 61t21.5 82q0 80 -54 129q-28 26 -60 33.5t-82 7.5h-140v-582h85v-66h-249v66h92v582h-92v66h309q60 0 102 -10.5t80 -42.5q81 -69 81 -180q0 -91 -62.5 -155.5t-153.5 -64.5l149 -195h95z" />
    <glyph glyph-name="S" unicode="S" horiz-adv-x="500" 
d="M434 543h-60q-7 59 -46 93t-96 34q-56 0 -96.5 -35t-40.5 -90q0 -64 47 -99q28 -21 119 -42q100 -23 143 -60q67 -55 67 -145q0 -78 -41 -129q-66 -84 -178 -84q-106 0 -162 84v-70h-60v192h60q7 -64 50 -102.5t109 -38.5q62 0 106 40t44 101q0 30 -10 53.5t-23.5 38
t-38 26t-44 17.5t-50.5 14q-5 1 -20.5 5t-21 6t-18.5 5.5t-20.5 6.5t-18 8t-19.5 10.5t-18 11.5q-74 54 -74 149q0 63 37 113q28 38 74.5 57.5t98.5 19.5q45 0 84.5 -20t56.5 -57v58h60v-171z" />
    <glyph glyph-name="T" unicode="T" horiz-adv-x="540" 
d="M311 648v-582h91v-66h-254v66h91v582h-155v-125h-62v191h506v-191h-62v125h-155z" />
    <glyph glyph-name="U" unicode="U" horiz-adv-x="700" 
d="M582 648v-411q0 -110 -57 -176q-67 -75 -175 -75t-175 73q-35 39 -47 82.5t-12 104.5v402h-91v66h249v-66h-86v-394q0 -89 30 -133q45 -63 131 -63q79 0 124 55q37 47 37 140v395h-86v66h249v-66h-91z" />
    <glyph glyph-name="V" unicode="V" horiz-adv-x="780" 
d="M691 648l-262 -648h-76l-256 648h-90v66h255v-66h-89l220 -548l224 548h-91v66h251v-66h-86z" />
    <glyph glyph-name="W" unicode="W" horiz-adv-x="1040" 
d="M933 648l-180 -648h-77l-158 573l-161 -573h-75l-188 648h-87v66h255v-66h-93l153 -538l167 604h57l167 -603l150 537h-96v66h256v-66h-90z" />
    <glyph glyph-name="X" unicode="X" horiz-adv-x="740" 
d="M414 367l220 -301h83v-66h-256v66h91l-180 248l-180 -248h87v-66h-257v66h89l218 301l-205 281h-86v66h256v-66h-87l165 -229l163 229h-91v66h257v-66h-83z" />
    <glyph glyph-name="Y" unicode="Y" horiz-adv-x="680" 
d="M381 240v-174h91v-66h-255v66h92v174l-217 408h-85v66h249v-66h-88l177 -340l168 340h-92v66h250v-66h-85z" />
    <glyph glyph-name="Z" unicode="Z" horiz-adv-x="520" 
d="M506 185v-185h-483v59l371 589h-297v-119h-62v185h447v-57l-372 -591h334v119h62z" />
    <glyph glyph-name="bracketleft" unicode="[" horiz-adv-x="300" 
d="M260 -62v-67h-225v843h225v-64h-151v-712h151z" />
    <glyph glyph-name="backslash" unicode="\" 
d="M381 0l-300 714h69l298 -714h-67z" />
    <glyph glyph-name="bracketright" unicode="]" horiz-adv-x="300" 
d="M36 -62h150v712h-150v64h224v-843h-224v67z" />
    <glyph glyph-name="asciicircum" unicode="^" horiz-adv-x="660" 
d="M111 174h-61l246 540h56l248 -540h-62l-215 468z" />
    <glyph glyph-name="underscore" unicode="_" horiz-adv-x="500" 
d="M0 -75h500v-50h-500v50z" />
    <glyph glyph-name="grave" unicode="`" horiz-adv-x="420" 
d="M343 645l-25 -50l-247 134l28 58z" />
    <glyph glyph-name="a" unicode="a" horiz-adv-x="660" 
d="M500 0v109q-72 -123 -214 -123q-72 0 -134 33t-96 90q-45 74 -42 151q0 35 7.5 65.5t14 43.5t22.5 41q32 57 94 90.5t133 33.5q141 0 215 -124v115h153v-62h-87v-401h87v-62h-153zM292 469q-87 0 -149.5 -61.5t-62.5 -148.5q0 -85 61.5 -147t147.5 -62q89 0 150.5 61.5
t61.5 149.5q0 86 -61.5 147t-147.5 61z" />
    <glyph glyph-name="b" unicode="b" horiz-adv-x="660" 
d="M169 714v-306q33 59 87.5 92.5t120.5 33.5q115 0 195 -80t80 -195q0 -79 -44 -150q-30 -49 -92 -86t-131 -37q-68 0 -125.5 32t-90.5 91v-109h-154v62h88v590h-88v62h154zM379 52q86 0 146.5 61.5t60.5 148.5q0 85 -61 145.5t-147 60.5q-90 0 -151 -60t-61 -149
q0 -88 62 -147.5t151 -59.5z" />
    <glyph glyph-name="c" unicode="c" horiz-adv-x="560" 
d="M529 525v-158h-62q-29 47 -77 74t-103 27q-87 0 -147 -61.5t-60 -148.5t61.5 -146.5t150.5 -59.5q57 0 107 30t73 82h74q-29 -81 -101 -129.5t-159 -48.5q-112 0 -192 80t-80 191q0 114 77 193q82 84 192 84q109 0 184 -84v75h62z" />
    <glyph glyph-name="d" unicode="d" horiz-adv-x="660" 
d="M500 0v111q-34 -59 -90.5 -92t-124.5 -33q-63 0 -127 35.5t-98 89.5q-46 73 -46 151q0 110 79.5 191t188.5 81q69 0 128 -34.5t90 -95.5v248h-88v62h154v-652h88v-62h-154zM292 48q88 0 149 62.5t61 151.5q0 87 -61.5 148t-148.5 61q-88 0 -150 -62.5t-62 -150.5
q0 -87 62.5 -148.5t149.5 -61.5z" />
    <glyph glyph-name="e" unicode="e" 
d="M467 147h70q-33 -73 -101 -117t-149 -44q-113 0 -193.5 79.5t-80.5 191.5q0 113 78.5 195t191.5 82q117 0 196.5 -80t79.5 -196v-20h-480q4 -81 64.5 -137t141.5 -56q58 0 106 26.5t76 75.5zM79 292h418q-11 80 -72.5 131t-142.5 51q-75 0 -134.5 -53.5t-68.5 -128.5z
" />
    <glyph glyph-name="f" unicode="f" horiz-adv-x="300" 
d="M170 465v-403h90v-62h-245v62h89v403h-89v64h88v8q1 39 3 58t13.5 46t34.5 47q43 40 126 45v-59q-45 -3 -73 -26q-17 -13 -25.5 -32t-9.5 -32.5t-2 -41.5v-13h90v-64h-90z" />
    <glyph glyph-name="g" unicode="g" horiz-adv-x="660" 
d="M49 -57h76q24 -48 71 -75.5t102 -27.5q86 0 145 64q32 33 43 68.5t11 86.5v56q-31 -61 -87.5 -95t-126.5 -34q-62 0 -131 35t-100 94q-39 74 -39 146q0 88 45 152q40 57 100.5 89t128.5 32q67 0 124 -32.5t86 -88.5v112h154v-62h-88v-391q0 -67 -13 -113t-52 -89
q-80 -87 -204 -87q-82 0 -151 42.5t-94 117.5zM292 48q87 0 148.5 63t61.5 150t-62 149.5t-149 62.5q-88 0 -150 -63t-62 -151q0 -87 63 -149t150 -62z" />
    <glyph glyph-name="h" unicode="h" horiz-adv-x="640" 
d="M169 714v-287q27 50 72.5 78.5t101.5 28.5q94 0 157 -74q31 -37 40 -77.5t9 -102.5v-218h88v-62h-242v62h88v191v18v19.5t-0.5 17.5t-1.5 19t-2.5 17t-4 18t-6 16t-8.5 17q-20 35 -55.5 55t-75.5 20q-73 0 -119 -52q-19 -22 -28.5 -47.5t-11 -45t-1.5 -54.5v-209h88v-62
h-242v62h88v590h-88v62h154z" />
    <glyph glyph-name="i" unicode="i" horiz-adv-x="260" 
d="M171 525v-463h88v-62h-244v62h90v401h-88v62h154zM171 714v-103h-66v103h66z" />
    <glyph glyph-name="j" unicode="j" horiz-adv-x="240" 
d="M174 525v-515q0 -95 -34.5 -144t-125.5 -66v63q23 4 40 12t27 22t16 25t8 33t2.5 33.5t0.5 37.5v13v424h-88v62h154zM174 714v-103h-66v103h66z" />
    <glyph glyph-name="k" unicode="k" 
d="M171 714v-423l193 172h-79v62h247v-62h-86l-197 -179l221 -222h95v-62h-258v62h74l-210 212v-212h80v-62h-236v62h90v590h-90v62h156z" />
    <glyph glyph-name="l" unicode="l" horiz-adv-x="280" 
d="M175 714v-652h87v-62h-247v62h94v590h-88v62h154z" />
    <glyph glyph-name="m" unicode="m" horiz-adv-x="980" 
d="M170 525v-91q23 47 64.5 73.5t95.5 26.5q111 0 166 -100l11 -20q21 54 71 87t107 33q136 0 186 -120q15 -36 15 -117v-235h88v-62h-242v62h88v220q0 102 -32 138q-44 50 -112 50t-111 -49q-23 -27 -30 -53.5t-7 -69.5v-236h88v-62h-242v62h88v222q0 89 -32 136
q-34 50 -112 50q-69 0 -110 -49q-38 -45 -38 -130v-229h88v-62h-242v62h88v401h-88v62h154z" />
    <glyph glyph-name="n" unicode="n" horiz-adv-x="660" 
d="M169 525v-92q24 48 72 74.5t104 26.5q50 0 103.5 -26.5t77.5 -74.5q29 -58 29 -137v-234h88v-62h-242v62h88v210q0 90 -25 133q-37 64 -137 64q-76 0 -123 -55q-23 -27 -29 -57t-6 -77v-218h88v-62h-242v62h88v401h-88v62h154z" />
    <glyph glyph-name="o" unicode="o" 
d="M288 -14q-114 0 -194.5 80t-80.5 193q0 115 81 195t196 80q112 0 192.5 -79.5t80.5 -190.5q0 -115 -80 -196.5t-195 -81.5zM288 51q87 0 148 61.5t61 147.5t-60.5 147.5t-147.5 61.5t-148.5 -61t-61.5 -147t61 -148t148 -62z" />
    <glyph glyph-name="p" unicode="p" horiz-adv-x="660" 
d="M169 525v-117q71 126 217 126q68 0 129 -31.5t97 -94.5q43 -75 43 -148q0 -114 -78.5 -194t-190.5 -80q-68 0 -127 33.5t-90 91.5v-244h88v-62h-242v62h88v596h-88v62h154zM378 48q86 0 148.5 62.5t62.5 149.5q0 95 -61.5 156t-145.5 56q-90 -5 -152 -61.5t-62 -149.5
q0 -88 61.5 -150.5t148.5 -62.5z" />
    <glyph glyph-name="q" unicode="q" horiz-adv-x="660" 
d="M499 -133v243q-30 -58 -89.5 -91t-126.5 -33q-113 0 -191 79.5t-78 193.5q0 81 38 148q30 54 92.5 90.5t138.5 36.5q70 0 126 -33t90 -94v118h154v-62h-88v-596h88v-62h-242v62h88zM291 48q87 0 148.5 62t62.5 150q1 82 -62.5 147t-151.5 65q-89 6 -148.5 -54.5
t-59.5 -157.5q0 -88 62 -150t149 -62z" />
    <glyph glyph-name="r" unicode="r" horiz-adv-x="360" 
d="M169 525v-107q17 52 62.5 78.5t105.5 28.5v-62q-168 -14 -168 -190v-211h88v-62h-242v62h88v401h-88v62h154z" />
    <glyph glyph-name="s" unicode="s" horiz-adv-x="420" 
d="M368 392h-54q-1 40 -34 64q-32 24 -74 24t-72.5 -24t-30.5 -65q0 -23 10 -40t29 -27.5t35.5 -15.5t41.5 -10q81 -16 119 -39q65 -37 65 -115q0 -37 -23 -81q-18 -35 -62 -56t-91 -21q-100 0 -146 77v-63h-54v150h54q4 -48 42.5 -79.5t91.5 -31.5q46 0 80 28t34 72
q0 21 -7.5 37t-17 25t-28.5 16.5t-31.5 10.5t-35.5 8q-85 19 -118 39q-62 40 -62 111q0 55 27 90q22 28 60.5 43t78.5 15q82 0 119 -58v49h54v-133z" />
    <glyph glyph-name="t" unicode="t" horiz-adv-x="320" 
d="M180 463v-401h124v-62h-190v463h-101v62h101v189h66v-189h116v-62h-116z" />
    <glyph glyph-name="u" unicode="u" horiz-adv-x="640" 
d="M478 0v88q-25 -48 -72 -75t-103 -27q-55 0 -104 30t-75 72q-27 44 -27 129v246h-88v62h154v-283q0 -31 1.5 -49.5t9 -43.5t22.5 -45q47 -62 126 -56q75 6 118 57q25 29 31.5 58t6.5 77v223h-88v62h154v-463h89v-62h-155z" />
    <glyph glyph-name="v" unicode="v" horiz-adv-x="640" 
d="M549 463l-192 -463h-74l-188 463h-88v62h241v-62h-80l153 -384l157 384h-84v62h239v-62h-84z" />
    <glyph glyph-name="w" unicode="w" horiz-adv-x="900" 
d="M807 463l-166 -463h-69l-117 363l-133 -363h-68l-159 463h-88v62h238v-62h-83l132 -377l135 388h55l123 -383l134 372h-85v62h239v-62h-88z" />
    <glyph glyph-name="x" unicode="x" horiz-adv-x="600" 
d="M339 263l150 -201h87v-62h-239v62h70l-112 154l-112 -154h70v-62h-238v62h86l149 201l-150 200h-82v62h235v-62h-72l114 -152l112 152h-76v62h236v-62h-81z" />
    <glyph glyph-name="y" unicode="y" horiz-adv-x="640" 
d="M541 463l-250 -596h86v-62h-243v62h88l54 129l-185 467h-84v62h240v-62h-83l148 -384l157 384h-82v62h238v-62h-84z" />
    <glyph glyph-name="z" unicode="z" horiz-adv-x="420" 
d="M353 159h59v-159h-399v56l301 407h-226v-101h-59v163h368v-61l-295 -402h251v97z" />
    <glyph glyph-name="braceleft" unicode="{" horiz-adv-x="300" 
d="M182 173v-184q0 -48 16.5 -73t61.5 -39q-72 -2 -108 25q-37 27 -37 105v184q0 19 -0.5 28t-5.5 21.5t-15 24.5q-22 25 -58 33q27 5 51 22q14 11 20.5 26.5t7 25.5t0.5 33v163q0 84 30.5 117t114.5 29q-43 -12 -60.5 -38.5t-17.5 -72.5v-172q0 -59 -17 -90.5t-70 -42.5
q51 -11 69 -40.5t18 -84.5z" />
    <glyph glyph-name="bar" unicode="|" horiz-adv-x="660" 
d="M294 750h62v-1000h-62v1000z" />
    <glyph glyph-name="braceright" unicode="}" horiz-adv-x="300" 
d="M114 431v172q0 46 -17 72.5t-60 38.5q84 4 114 -29t30 -117v-163q0 -23 1 -33t7.5 -25.5t20.5 -26.5q22 -17 50 -22q-36 -8 -58 -33q-10 -12 -15 -24.5t-5.5 -21.5t-0.5 -28v-184q0 -79 -36 -105q-16 -12 -35.5 -17.5t-33 -6.5t-39.5 -1q44 14 60.5 39t16.5 73v184
q0 55 18 84.5t69 40.5q-52 11 -69.5 43t-17.5 90z" />
    <glyph glyph-name="asciitilde" unicode="~" horiz-adv-x="660" 
d="M551 420l47 -30q-24 -33 -39.5 -51t-44 -34.5t-61.5 -16.5t-99 24l-53 20q-69 26 -94 26q-36 0 -59 -20.5t-48 -59.5l-47 30q34 53 69 81t87 28q43 0 127 -35q91 -35 115 -35q33 0 54.5 18.5t45.5 54.5z" />
    <glyph glyph-name="uni00A0" unicode="&#xa0;" horiz-adv-x="300" 
 />
    <glyph glyph-name="exclamdown" unicode="&#xa1;" horiz-adv-x="140" 
d="M36 416v109h69v-109h-69zM36 -190v532h69v-532h-69z" />
    <glyph glyph-name="cent" unicode="&#xa2;" 
d="M493 443h-61q-34 57 -99 67v-311q62 17 97 66h74q-21 -53 -67 -87t-104 -45v-93h-58v93q-84 9 -141.5 73t-57.5 149q0 86 57 149.5t142 74.5v94h58v-94q71 -13 113 -63v56h47v-129zM275 199v311q-58 -9 -94.5 -53t-36.5 -103q0 -57 37.5 -101t93.5 -54z" />
    <glyph glyph-name="sterling" unicode="&#xa3;" 
d="M174 387h244v-56h-202q40 -40 60.5 -73.5t20.5 -77.5q0 -72 -51 -122h85q86 0 127 30q54 40 54 113q0 21 -7 38h65q6 -17 6 -42q0 -91 -67 -148q-57 -49 -169 -49h-292v58h115q30 16 45.5 49t15.5 70q0 31 -16 62t-30.5 46.5t-46.5 45.5h-127v56h88q-39 54 -39 116
q0 92 70 159.5t163 67.5q104 0 170 -86v69h65v-173h-65q-8 56 -54.5 91.5t-104.5 35.5q-72 0 -121 -49t-49 -121q0 -63 47 -110z" />
    <glyph glyph-name="currency" unicode="&#xa4;" 
d="M50 142l55 54q-50 61 -50 143q0 84 50 145l-55 53l40 41l54 -54q64 50 145 50q83 0 144 -50l54 54l40 -41l-53 -53q49 -62 49 -145q0 -76 -49 -143l53 -54l-41 -39l-53 53q-64 -51 -142 -51q-77 0 -147 51l-53 -53zM290 515q-73 0 -124 -51t-51 -123t50.5 -123.5
t122.5 -51.5t124 50.5t52 122.5q0 73 -50.5 124.5t-123.5 51.5z" />
    <glyph glyph-name="yen" unicode="&#xa5;" 
d="M404 0h-215v62h77v174l-17 36h-200v45h181l-24 56h-157v44h136l-103 235h-73v62h212v-62h-76l151 -345l141 345h-77v62h211v-62h-71l-96 -235h136v-44h-156l-24 -56h180v-45h-199l-14 -36v-174h77v-62z" />
    <glyph glyph-name="brokenbar" unicode="&#xa6;" horiz-adv-x="660" 
d="M294 675h62v-350h-62v350zM294 175h62v-350h-62v350z" />
    <glyph glyph-name="section" unicode="&#xa7;" horiz-adv-x="440" 
d="M27 40l62 -2q-4 -54 32.5 -82.5t92.5 -28.5q51 0 85.5 28t34.5 77q0 48 -42 78q-23 15 -84 29q-161 34 -161 155q0 55 33 94t87 52q-103 40 -103 130q0 63 46 103.5t110 40.5t114.5 -35t51.5 -96l-59 2q0 36 -31.5 55.5t-70.5 19.5q-43 0 -72 -27t-29 -69q0 -70 115 -107
q66 -21 92 -41q61 -48 61 -120q0 -47 -28.5 -83.5t-73.5 -52.5q46 -15 74 -50t28 -83q0 -73 -52.5 -115.5t-127.5 -42.5q-74 0 -129.5 43.5t-55.5 115.5v12zM216 196q49 0 82.5 28t33.5 76q0 39 -35 68.5t-75 29.5q-46 0 -82 -27t-36 -72q0 -44 34 -73.5t78 -29.5z" />
    <glyph glyph-name="dieresis" unicode="&#xa8;" horiz-adv-x="340" 
d="M268 752v-125h-69v125h69zM141 752v-125h-69v125h69z" />
    <glyph glyph-name="copyright" unicode="&#xa9;" horiz-adv-x="820" 
d="M407 -14q-151 0 -258 110t-107 264q0 155 107.5 264t261.5 109q151 0 259 -108.5t108 -261.5q0 -158 -107.5 -267.5t-263.5 -109.5zM411 36v2q130 -1 223.5 93t93.5 227q0 136 -93 230.5t-226 94.5q-130 0 -223.5 -95t-93.5 -227q0 -134 93.5 -229.5t225.5 -95.5z
M551 284l60 -19q-20 -61 -76 -93.5t-124 -32.5q-94 0 -151.5 61t-57.5 157q0 99 62 163.5t160 64.5q64 0 119 -32t68 -90l-68 -16q-8 46 -40.5 71t-81.5 25q-73 0 -113 -53.5t-40 -129.5t39 -126.5t112 -50.5q98 0 132 101z" />
    <glyph glyph-name="ordfeminine" unicode="&#xaa;" horiz-adv-x="420" 
d="M300 409v57q-19 -31 -52 -48t-70 -17q-34 0 -71 19.5t-57 45.5q-36 48 -36 102q0 63 34 100q33 36 61.5 50.5t67.5 14.5q79 0 123 -65v57h98v-44h-52v-229h52v-43h-98zM180 446q51 0 86 35.5t35 86.5q0 50 -35.5 85t-84.5 35t-84.5 -35.5t-35.5 -85.5q0 -49 35 -85
t84 -36z" />
    <glyph glyph-name="guillemotleft" unicode="&#xab;" horiz-adv-x="320" 
d="M151 69l-115 172v40l115 171l15 -56l-85 -137l85 -136zM271 83l-108 158v39l108 161l15 -58l-78 -124l78 -123z" />
    <glyph glyph-name="logicalnot" unicode="&#xac;" horiz-adv-x="660" 
d="M586 155v247h-582v61h642v-308h-60z" />
    <glyph glyph-name="uni00AD" unicode="&#xad;" horiz-adv-x="300" 
d="M274 228h-248v66h248v-66z" />
    <glyph glyph-name="registered" unicode="&#xae;" horiz-adv-x="820" 
d="M409 -14q-152 0 -259.5 110.5t-107.5 264.5q0 155 108.5 263.5t261.5 108.5t260.5 -109.5t107.5 -264.5t-109 -264t-262 -109zM414 36v2q130 -1 223 95t93 228q0 134 -94.5 228t-226.5 94q-130 0 -223.5 -95t-93.5 -227q0 -136 94 -230.5t228 -94.5zM483 343l126 -201
h-72l-119 201h-96v-201h-62v445h200q71 0 105 -21q52 -30 52 -101q0 -60 -36 -90t-98 -32zM322 391h115q24 0 42 2.5t36.5 10t28.5 24t10 41.5q0 23 -9.5 38.5t-27 22t-34 9t-38.5 2.5h-123v-150z" />
    <glyph glyph-name="macron" unicode="&#xaf;" horiz-adv-x="460" 
d="M391 718v-55h-320v55h320z" />
    <glyph glyph-name="degree" unicode="&#xb0;" horiz-adv-x="400" 
d="M350 583q0 -62 -44 -106t-106 -44t-106 44t-44 106q-1 62 43.5 106t106.5 44t106 -44t44 -106zM310 583q0 45 -32.5 77.5t-78.5 32.5q-44 0 -76.5 -32.5t-32.5 -77.5t32.5 -77.5t77.5 -32.5t77.5 32.5t32.5 77.5z" />
    <glyph glyph-name="plusminus" unicode="&#xb1;" horiz-adv-x="660" 
d="M76 449h223v162h62v-162h223v-61h-223v-162h-62v162h-223v61zM76 165h508v-61h-508v61z" />
    <glyph glyph-name="twosuperior" unicode="&#xb2;" horiz-adv-x="348" 
d="M279 397h41v-104h-295v37l196 177q19 17 28.5 27t18.5 27.5t9 36.5q0 40 -29.5 67t-72.5 27q-48 0 -75 -29.5t-27 -72.5h-45q0 61 42.5 102t107.5 41q60 0 102 -38.5t42 -97.5q0 -26 -11.5 -49t-24.5 -36.5t-38 -35.5l-164 -146h195v67z" />
    <glyph glyph-name="threesuperior" unicode="&#xb3;" horiz-adv-x="348" 
d="M162 518h-24v34h32q31 0 55 18.5t24 52.5q0 32 -22.5 53t-56.5 21q-30 0 -52.5 -20t-23.5 -48h-44q1 45 37.5 74.5t84.5 29.5q49 0 84.5 -30t35.5 -75q0 -68 -62 -91q40 -12 65.5 -44.5t25.5 -73.5q0 -56 -44 -95t-105 -39q-63 0 -107 36.5t-48 94.5h48q3 -38 32 -65.5
t70 -27.5q45 0 75.5 29t30.5 71q0 41 -33.5 68t-77.5 27z" />
    <glyph glyph-name="acute" unicode="&#xb4;" horiz-adv-x="420" 
d="M95 597l-24 49l246 139l30 -57z" />
    <glyph glyph-name="mu" unicode="&#xb5;" horiz-adv-x="640" 
d="M478 0v88h-2q-24 -48 -70 -75t-103 -27q-78 0 -140 55v-236h-66v658h-88v62h154v-295q0 -78 37.5 -130t121.5 -52q9 0 22 2t38.5 12.5t45 28t35 54t15.5 85.5v233h-88v62h154v-463h89v-62h-155z" />
    <glyph glyph-name="paragraph" unicode="&#xb6;" horiz-adv-x="500" 
d="M241 714h248v-62h-88v-781h-52v781h-82v-781h-53v486q-75 2 -126.5 52.5t-51.5 125.5q0 82 61 135q30 26 63 35t81 9z" />
    <glyph glyph-name="periodcentered" unicode="&#xb7;" horiz-adv-x="300" 
d="M185 413v-109h-69v109h69z" />
    <glyph glyph-name="cedilla" unicode="&#xb8;" horiz-adv-x="320" 
d="M166 -9l-26 -80q12 6 26 6q33 0 54.5 -23.5t21.5 -57.5q0 -36 -24.5 -62t-59.5 -26t-58.5 20.5t-28.5 54.5h46q10 -29 39 -29q18 0 29 12t11 30t-12 29.5t-30 11.5q-24 0 -36 -18l-38 14l39 118h47z" />
    <glyph glyph-name="onesuperior" unicode="&#xb9;" horiz-adv-x="348" 
d="M202 714v-391h64v-37h-174v37h63v357h-93v34h140z" />
    <glyph glyph-name="ordmasculine" unicode="&#xba;" horiz-adv-x="340" 
d="M179 402q-68 0 -116.5 48.5t-48.5 116.5q0 69 48.5 117.5t117.5 48.5q68 0 116 -48t48 -115q0 -69 -48 -118.5t-117 -49.5zM179 445q51 0 86.5 36t35.5 87q0 50 -35.5 86t-85.5 36q-51 0 -87 -35.5t-36 -86.5t35.5 -87t86.5 -36z" />
    <glyph glyph-name="guillemotright" unicode="&#xbb;" horiz-adv-x="320" 
d="M171 69l-15 54l85 136l-85 137l15 56l115 -171v-40zM51 83l-15 53l79 123l-79 124l15 58l109 -161v-39z" />
    <glyph glyph-name="onequarter" unicode="&#xbc;" horiz-adv-x="870" 
d="M282 0h-58l317 714h57zM816 140v-35h-68v-68h62v-37h-168v37h61v68h-228v35l218 288h55v-288h68zM212 322h64v-36h-173v36h62v357h-93v35h140v-392zM703 140v238l-177 -238h177z" />
    <glyph glyph-name="onehalf" unicode="&#xbd;" horiz-adv-x="870" 
d="M295 0h-58l317 714h57zM202 714v-391h64v-37h-174v37h63v357h-93v34h140zM791 104h41v-104h-295v37l196 177q19 17 28.5 27t18.5 27.5t9 36.5q0 40 -29.5 67t-72.5 27q-48 0 -75 -29.5t-27 -72.5h-45q0 61 42.5 102t107.5 41q60 0 102 -38.5t42 -97.5q0 -26 -11.5 -49
t-24.5 -36.5t-38 -35.5l-164 -146h195v67z" />
    <glyph glyph-name="threequarters" unicode="&#xbe;" horiz-adv-x="870" 
d="M856 140v-35h-68v-68h62v-37h-168v37h61v68h-228v35l218 288h55v-288h68zM743 140v237l-177 -237h177zM329 0h-58l317 714h57zM172 518h-24v34h32q31 0 55 18.5t24 52.5q0 32 -22.5 53t-56.5 21q-30 0 -52.5 -20t-23.5 -48h-44q1 45 37.5 74.5t84.5 29.5q49 0 84.5 -30
t35.5 -75q0 -68 -62 -91q40 -12 65.5 -44.5t25.5 -73.5q0 -56 -44 -95t-105 -39q-63 0 -107 36.5t-48 94.5h48q3 -38 32 -65.5t70 -27.5q45 0 75.5 29t30.5 71q0 41 -33.5 68t-77.5 27z" />
    <glyph glyph-name="questiondown" unicode="&#xbf;" horiz-adv-x="520" 
d="M219 416v109h70v-109h-70zM219 345h70q1 -64 -24.5 -109.5t-78.5 -93.5q-30 -28 -41.5 -40.5t-24 -38t-12.5 -56.5q0 -63 45 -107t108 -44t107 46t44 109h70q1 -93 -64 -159t-158 -66q-92 0 -158 64t-66 156q0 40 14 72.5t30 50.5t53 52q41 39 62.5 76t23.5 88z" />
    <glyph glyph-name="Agrave" unicode="&#xc0;" horiz-adv-x="820" 
d="M816 0h-262v66h93l-71 164h-331l-73 -164h90v-66h-255v66h89l259 582h-95v66h187l280 -648h89v-66zM555 289l-143 344l-146 -344h289zM543 834l-25 -50l-247 134l28 58z" />
    <glyph glyph-name="Aacute" unicode="&#xc1;" horiz-adv-x="820" 
d="M816 0h-262v66h93l-71 164h-331l-73 -164h90v-66h-255v66h89l259 582h-95v66h187l280 -648h89v-66zM555 289l-143 344l-146 -344h289zM295 786l-24 49l246 139l30 -57z" />
    <glyph glyph-name="Acircumflex" unicode="&#xc2;" horiz-adv-x="820" 
d="M816 0h-262v66h93l-71 164h-331l-73 -164h90v-66h-255v66h89l259 582h-95v66h187l280 -648h89v-66zM555 289l-143 344l-146 -344h289zM606 806h-86l-109 82l-107 -82h-83l172 138h39z" />
    <glyph glyph-name="Atilde" unicode="&#xc3;" horiz-adv-x="820" 
d="M816 0h-262v66h93l-71 164h-331l-73 -164h90v-66h-255v66h89l259 582h-95v66h187l280 -648h89v-66zM555 289l-143 344l-146 -344h289zM534 925l37 -45q-43 -46 -99 -46q-28 0 -66 17.5t-55 17.5q-32 0 -60 -30l-39 49q15 17 39.5 28t46.5 11t62 -17q40 -18 63 -18
q45 0 71 33z" />
    <glyph glyph-name="Adieresis" unicode="&#xc4;" horiz-adv-x="820" 
d="M816 0h-262v66h93l-71 164h-331l-73 -164h90v-66h-255v66h89l259 582h-95v66h187l280 -648h89v-66zM555 289l-143 344l-146 -344h289zM508 941v-125h-69v125h69zM381 941v-125h-69v125h69z" />
    <glyph glyph-name="Aring" unicode="&#xc5;" horiz-adv-x="820" 
d="M816 0h-262v66h93l-71 164h-331l-73 -164h90v-66h-255v66h89l259 582h-95v66h187l280 -648h89v-66zM555 289l-143 344l-146 -344h289zM409 770q-45 0 -76 31t-31 76q0 44 31.5 74.5t75.5 30.5q43 0 74 -31.5t31 -74.5q0 -44 -31 -75t-74 -31zM409 814q26 0 43.5 18.5
t17.5 44.5t-18.5 43.5t-43.5 17.5q-27 0 -44.5 -18.5t-17.5 -44.5t18.5 -43.5t44.5 -17.5z" />
    <glyph glyph-name="AE" unicode="&#xc6;" horiz-adv-x="1000" 
d="M896 184h72v-184h-501v66h91v170h-263l-124 -170h91v-66h-255v66h91l405 582h-89v66h554v-184h-72v118h-266v-258h279v-59h-279v-265h266v118zM558 292v335l-228 -335h228z" />
    <glyph glyph-name="Ccedilla" unicode="&#xc7;" horiz-adv-x="740" 
d="M708 540h-66q-39 58 -105.5 89.5t-140.5 31.5q-126 0 -213.5 -86.5t-87.5 -211.5t86.5 -215t212.5 -90q75 0 141 34t109 95h80q-45 -92 -134.5 -146.5t-193.5 -54.5q-12 0 -17 1l-25 -76q12 6 26 6q33 0 54.5 -23.5t21.5 -57.5q0 -36 -24.5 -62t-59.5 -26t-58.5 20.5
t-28.5 54.5h46q10 -29 39 -29q18 0 29 12t11 30t-12 29.5t-30 11.5q-24 0 -36 -18l-38 14l40 120q-114 16 -202 102q-109 108 -109 268q0 150 112 267q47 49 115.5 76t144.5 27q154 0 247 -103v84h66v-174z" />
    <glyph glyph-name="Egrave" unicode="&#xc8;" horiz-adv-x="560" 
d="M455 184h72v-184h-503v66h91v582h-91v66h503v-184h-72v118h-268v-258h276v-59h-276v-265h268v118zM413 834l-25 -50l-247 134l28 58z" />
    <glyph glyph-name="Eacute" unicode="&#xc9;" horiz-adv-x="560" 
d="M455 184h72v-184h-503v66h91v582h-91v66h503v-184h-72v118h-268v-258h276v-59h-276v-265h268v118zM165 786l-24 49l246 139l30 -57z" />
    <glyph glyph-name="Ecircumflex" unicode="&#xca;" horiz-adv-x="560" 
d="M455 184h72v-184h-503v66h91v582h-91v66h503v-184h-72v118h-268v-258h276v-59h-276v-265h268v118zM476 806h-86l-109 82l-107 -82h-83l172 138h39z" />
    <glyph glyph-name="Edieresis" unicode="&#xcb;" horiz-adv-x="560" 
d="M455 184h72v-184h-503v66h91v582h-91v66h503v-184h-72v118h-268v-258h276v-59h-276v-265h268v118zM378 941v-125h-69v125h69zM251 941v-125h-69v125h69z" />
    <glyph glyph-name="Igrave" unicode="&#xcc;" horiz-adv-x="300" 
d="M187 648v-582h91v-66h-254v66h91v582h-91v66h254v-66h-91zM283 834l-25 -50l-247 134l28 58z" />
    <glyph glyph-name="Iacute" unicode="&#xcd;" horiz-adv-x="300" 
d="M187 648v-582h91v-66h-254v66h91v582h-91v66h254v-66h-91zM35 786l-24 49l246 139l30 -57z" />
    <glyph glyph-name="Icircumflex" unicode="&#xce;" horiz-adv-x="300" 
d="M187 648v-582h91v-66h-254v66h91v582h-91v66h254v-66h-91zM346 806h-86l-109 82l-107 -82h-83l172 138h39z" />
    <glyph glyph-name="Idieresis" unicode="&#xcf;" horiz-adv-x="300" 
d="M187 648v-582h91v-66h-254v66h91v582h-91v66h254v-66h-91zM248 941v-125h-69v125h69zM121 941v-125h-69v125h69z" />
    <glyph glyph-name="Eth" unicode="&#xd0;" horiz-adv-x="720" 
d="M23 333v56h92v259h-92v66h318q79 0 139 -22t115 -75q106 -104 106 -262q0 -146 -102 -254q-53 -55 -114.5 -78t-143.5 -23h-318v66h92v267h-92zM187 648v-259h164v-56h-164v-267h140q71 0 123 16.5t95 62.5q39 41 61.5 97.5t22.5 113.5q0 62 -23.5 120.5t-66.5 99.5
q-45 42 -92.5 57t-116.5 15h-143z" />
    <glyph glyph-name="Ntilde" unicode="&#xd1;" horiz-adv-x="800" 
d="M688 648v-648h-74l-427 597v-531h92v-66h-255v66h91v582h-91v66h164l428 -600v534h-91v66h254v-66h-91zM524 925l37 -45q-43 -46 -99 -46q-28 0 -66 17.5t-55 17.5q-32 0 -60 -30l-39 49q15 17 39.5 28t46.5 11t62 -17q40 -18 63 -18q45 0 71 33z" />
    <glyph glyph-name="Ograve" unicode="&#xd2;" horiz-adv-x="800" 
d="M400 -14q-156 0 -266.5 109t-110.5 264q0 156 110 265t267 109q154 0 264 -108.5t110 -260.5q0 -157 -109 -267.5t-265 -110.5zM399 57q126 1 214.5 90t88.5 214q0 123 -88.5 211.5t-213.5 88.5q-126 0 -215.5 -88t-89.5 -212q0 -126 88.5 -214.5t215.5 -88.5v-1z
M533 834l-25 -50l-247 134l28 58z" />
    <glyph glyph-name="Oacute" unicode="&#xd3;" horiz-adv-x="800" 
d="M400 -14q-156 0 -266.5 109t-110.5 264q0 156 110 265t267 109q154 0 264 -108.5t110 -260.5q0 -157 -109 -267.5t-265 -110.5zM399 57q126 1 214.5 90t88.5 214q0 123 -88.5 211.5t-213.5 88.5q-126 0 -215.5 -88t-89.5 -212q0 -126 88.5 -214.5t215.5 -88.5v-1z
M285 786l-24 49l246 139l30 -57z" />
    <glyph glyph-name="Ocircumflex" unicode="&#xd4;" horiz-adv-x="800" 
d="M400 -14q-156 0 -266.5 109t-110.5 264q0 156 110 265t267 109q154 0 264 -108.5t110 -260.5q0 -157 -109 -267.5t-265 -110.5zM399 57q126 1 214.5 90t88.5 214q0 123 -88.5 211.5t-213.5 88.5q-126 0 -215.5 -88t-89.5 -212q0 -126 88.5 -214.5t215.5 -88.5v-1z
M596 806h-86l-109 82l-107 -82h-83l172 138h39z" />
    <glyph glyph-name="Otilde" unicode="&#xd5;" horiz-adv-x="800" 
d="M400 -14q-156 0 -266.5 109t-110.5 264q0 156 110 265t267 109q154 0 264 -108.5t110 -260.5q0 -157 -109 -267.5t-265 -110.5zM399 57q126 1 214.5 90t88.5 214q0 123 -88.5 211.5t-213.5 88.5q-126 0 -215.5 -88t-89.5 -212q0 -126 88.5 -214.5t215.5 -88.5v-1z
M524 925l37 -45q-43 -46 -99 -46q-28 0 -66 17.5t-55 17.5q-32 0 -60 -30l-39 49q15 17 39.5 28t46.5 11t62 -17q40 -18 63 -18q45 0 71 33z" />
    <glyph glyph-name="Odieresis" unicode="&#xd6;" horiz-adv-x="800" 
d="M400 -14q-156 0 -266.5 109t-110.5 264q0 156 110 265t267 109q154 0 264 -108.5t110 -260.5q0 -157 -109 -267.5t-265 -110.5zM399 57q126 1 214.5 90t88.5 214q0 123 -88.5 211.5t-213.5 88.5q-126 0 -215.5 -88t-89.5 -212q0 -126 88.5 -214.5t215.5 -88.5v-1z
M498 941v-125h-69v125h69zM371 941v-125h-69v125h69z" />
    <glyph glyph-name="multiply" unicode="&#xd7;" horiz-adv-x="660" 
d="M106 178l180 180l-180 180l44 44l180 -180l180 180l44 -44l-180 -180l180 -180l-44 -44l-180 180l-180 -180z" />
    <glyph glyph-name="Oslash" unicode="&#xd8;" horiz-adv-x="800" 
d="M183 49l-86 -107l-43 35l88 107q-119 111 -119 273q0 158 110 267t269 109q100 0 201 -63l11 -6l81 99l43 -34l-81 -99q115 -112 115 -273q0 -153 -109.5 -262t-263.5 -109q-102 0 -185 46zM610 572l-379 -464q88 -50 165 -50q128 0 216 88.5t88 215.5q0 117 -90 210z
M189 143l380 464q-87 54 -169 54q-128 0 -216.5 -88.5t-88.5 -214.5q0 -116 94 -215z" />
    <glyph glyph-name="Ugrave" unicode="&#xd9;" horiz-adv-x="700" 
d="M582 648v-411q0 -110 -57 -176q-67 -75 -175 -75t-175 73q-35 39 -47 82.5t-12 104.5v402h-91v66h249v-66h-86v-394q0 -89 30 -133q45 -63 131 -63q79 0 124 55q37 47 37 140v395h-86v66h249v-66h-91zM483 834l-25 -50l-247 134l28 58z" />
    <glyph glyph-name="Uacute" unicode="&#xda;" horiz-adv-x="700" 
d="M582 648v-411q0 -110 -57 -176q-67 -75 -175 -75t-175 73q-35 39 -47 82.5t-12 104.5v402h-91v66h249v-66h-86v-394q0 -89 30 -133q45 -63 131 -63q79 0 124 55q37 47 37 140v395h-86v66h249v-66h-91zM235 786l-24 49l246 139l30 -57z" />
    <glyph glyph-name="Ucircumflex" unicode="&#xdb;" horiz-adv-x="700" 
d="M582 648v-411q0 -110 -57 -176q-67 -75 -175 -75t-175 73q-35 39 -47 82.5t-12 104.5v402h-91v66h249v-66h-86v-394q0 -89 30 -133q45 -63 131 -63q79 0 124 55q37 47 37 140v395h-86v66h249v-66h-91zM546 806h-86l-109 82l-107 -82h-83l172 138h39z" />
    <glyph glyph-name="Udieresis" unicode="&#xdc;" horiz-adv-x="700" 
d="M582 648v-411q0 -110 -57 -176q-67 -75 -175 -75t-175 73q-35 39 -47 82.5t-12 104.5v402h-91v66h249v-66h-86v-394q0 -89 30 -133q45 -63 131 -63q79 0 124 55q37 47 37 140v395h-86v66h249v-66h-91zM448 941v-125h-69v125h69zM321 941v-125h-69v125h69z" />
    <glyph glyph-name="Yacute" unicode="&#xdd;" horiz-adv-x="680" 
d="M381 240v-174h91v-66h-255v66h92v174l-217 408h-85v66h249v-66h-88l177 -340l168 340h-92v66h250v-66h-85zM225 786l-24 49l246 139l30 -57z" />
    <glyph glyph-name="Thorn" unicode="&#xde;" 
d="M187 159v-93h91v-66h-254v66h91v582h-91v66h254v-66h-91v-72h129q107 0 177.5 -52.5t70.5 -151.5q0 -101 -68 -157t-173 -56h-136zM187 225h129q77 0 126.5 36t49.5 109q0 69 -51 104.5t-126 35.5h-128v-285z" />
    <glyph glyph-name="germandbls" unicode="&#xdf;" 
d="M101 62v432q0 97 45 155q28 37 71.5 57.5t90.5 20.5q81 0 140.5 -56t59.5 -137q0 -55 -27.5 -99t-78.5 -62q73 -9 117.5 -62t44.5 -129q0 -86 -56.5 -142t-143.5 -56q-52 0 -99 25v64q45 -27 90 -27q58 0 98.5 40.5t40.5 98.5q0 31 -15 61.5t-39 50.5q-45 35 -123 35h-25
l-9 -1v62q63 -5 108 33.5t45 101.5q0 54 -38 92.5t-93 38.5q-67 0 -107 -56q-12 -18 -18 -39.5t-7 -36.5t-1 -44v-483h-159v62h88z" />
    <glyph glyph-name="agrave" unicode="&#xe0;" horiz-adv-x="660" 
d="M500 0v109q-72 -123 -214 -123q-72 0 -134 33t-96 90q-45 74 -42 151q0 35 7.5 65.5t14 43.5t22.5 41q32 57 94 90.5t133 33.5q141 0 215 -124v115h153v-62h-87v-401h87v-62h-153zM292 469q-87 0 -149.5 -61.5t-62.5 -148.5q0 -85 61.5 -147t147.5 -62q89 0 150.5 61.5
t61.5 149.5q0 86 -61.5 147t-147.5 61zM463 645l-25 -50l-247 134l28 58z" />
    <glyph glyph-name="aacute" unicode="&#xe1;" horiz-adv-x="660" 
d="M500 0v109q-72 -123 -214 -123q-72 0 -134 33t-96 90q-45 74 -42 151q0 35 7.5 65.5t14 43.5t22.5 41q32 57 94 90.5t133 33.5q141 0 215 -124v115h153v-62h-87v-401h87v-62h-153zM292 469q-87 0 -149.5 -61.5t-62.5 -148.5q0 -85 61.5 -147t147.5 -62q89 0 150.5 61.5
t61.5 149.5q0 86 -61.5 147t-147.5 61zM215 597l-24 49l246 139l30 -57z" />
    <glyph glyph-name="acircumflex" unicode="&#xe2;" horiz-adv-x="660" 
d="M500 0v109q-72 -123 -214 -123q-72 0 -134 33t-96 90q-45 74 -42 151q0 35 7.5 65.5t14 43.5t22.5 41q32 57 94 90.5t133 33.5q141 0 215 -124v115h153v-62h-87v-401h87v-62h-153zM292 469q-87 0 -149.5 -61.5t-62.5 -148.5q0 -85 61.5 -147t147.5 -62q89 0 150.5 61.5
t61.5 149.5q0 86 -61.5 147t-147.5 61zM526 617h-86l-109 82l-107 -82h-83l172 138h39z" />
    <glyph glyph-name="atilde" unicode="&#xe3;" horiz-adv-x="660" 
d="M500 0v109q-72 -123 -214 -123q-72 0 -134 33t-96 90q-45 74 -42 151q0 35 7.5 65.5t14 43.5t22.5 41q32 57 94 90.5t133 33.5q141 0 215 -124v115h153v-62h-87v-401h87v-62h-153zM292 469q-87 0 -149.5 -61.5t-62.5 -148.5q0 -85 61.5 -147t147.5 -62q89 0 150.5 61.5
t61.5 149.5q0 86 -61.5 147t-147.5 61zM454 736l37 -45q-43 -46 -99 -46q-28 0 -66 17.5t-55 17.5q-32 0 -60 -30l-39 49q15 17 39.5 28t46.5 11t62 -17q40 -18 63 -18q45 0 71 33z" />
    <glyph glyph-name="adieresis" unicode="&#xe4;" horiz-adv-x="660" 
d="M500 0v109q-72 -123 -214 -123q-72 0 -134 33t-96 90q-45 74 -42 151q0 35 7.5 65.5t14 43.5t22.5 41q32 57 94 90.5t133 33.5q141 0 215 -124v115h153v-62h-87v-401h87v-62h-153zM292 469q-87 0 -149.5 -61.5t-62.5 -148.5q0 -85 61.5 -147t147.5 -62q89 0 150.5 61.5
t61.5 149.5q0 86 -61.5 147t-147.5 61zM428 752v-125h-69v125h69zM301 752v-125h-69v125h69z" />
    <glyph glyph-name="aring" unicode="&#xe5;" horiz-adv-x="660" 
d="M500 0v109q-72 -123 -214 -123q-72 0 -134 33t-96 90q-45 74 -42 151q0 35 7.5 65.5t14 43.5t22.5 41q32 57 94 90.5t133 33.5q141 0 215 -124v115h153v-62h-87v-401h87v-62h-153zM292 469q-87 0 -149.5 -61.5t-62.5 -148.5q0 -85 61.5 -147t147.5 -62q89 0 150.5 61.5
t61.5 149.5q0 86 -61.5 147t-147.5 61zM329 581q-45 0 -76 31t-31 76q0 44 31.5 74.5t75.5 30.5q43 0 74 -31.5t31 -74.5q0 -44 -31 -75t-74 -31zM329 625q26 0 43.5 18.5t17.5 44.5t-18.5 43.5t-43.5 17.5q-27 0 -44.5 -18.5t-17.5 -44.5t18.5 -43.5t44.5 -17.5z" />
    <glyph glyph-name="ae" unicode="&#xe6;" horiz-adv-x="1060" 
d="M565 525v-122q70 131 218 131q77 0 136.5 -36.5t92.5 -94.5q39 -70 39 -145v-18h-486q6 -81 67.5 -135t142.5 -54q58 0 98.5 23t79.5 74h76l-21 -35q-35 -58 -93 -92.5t-131 -34.5q-69 0 -128 34t-91 93v-113h-66v119q-30 -63 -84.5 -98t-125.5 -35q-73 0 -136.5 36.5
t-100.5 96.5q-38 62 -38 138q0 93 46 153q45 59 103.5 91.5t122.5 32.5q68 0 124.5 -33t88.5 -91v115h66zM290 51q90 1 149.5 62t59.5 151q0 86 -61 145t-147 59t-148.5 -59.5t-62.5 -144.5q0 -87 61 -149.5t149 -63.5zM565 293h420q-11 75 -71 125t-138 50
q-80 0 -138.5 -48.5t-72.5 -126.5z" />
    <glyph glyph-name="ccedilla" unicode="&#xe7;" horiz-adv-x="560" 
d="M529 525v-158h-62q-29 47 -77 74t-103 27q-87 0 -147 -61.5t-60 -148.5t61.5 -146.5t150.5 -59.5q57 0 107 30t73 82h74q-29 -80 -100.5 -128.5t-157.5 -49.5l-24 -75q12 6 26 6q33 0 54.5 -23.5t21.5 -57.5q0 -36 -24.5 -62t-59.5 -26t-58.5 20.5t-28.5 54.5h46
q10 -29 39 -29q18 0 29 12t11 30t-12 29.5t-30 11.5q-24 0 -36 -18l-38 14l39 118q-98 15 -163.5 91t-65.5 175q0 114 77 193q82 84 192 84q109 0 184 -84v75h62z" />
    <glyph glyph-name="egrave" unicode="&#xe8;" 
d="M467 147h70q-33 -73 -101 -117t-149 -44q-113 0 -193.5 79.5t-80.5 191.5q0 113 78.5 195t191.5 82q117 0 196.5 -80t79.5 -196v-20h-480q4 -81 64.5 -137t141.5 -56q58 0 106 26.5t76 75.5zM79 292h418q-11 80 -72.5 131t-142.5 51q-75 0 -134.5 -53.5t-68.5 -128.5z
M423 645l-25 -50l-247 134l28 58z" />
    <glyph glyph-name="eacute" unicode="&#xe9;" 
d="M467 147h70q-33 -73 -101 -117t-149 -44q-113 0 -193.5 79.5t-80.5 191.5q0 113 78.5 195t191.5 82q117 0 196.5 -80t79.5 -196v-20h-480q4 -81 64.5 -137t141.5 -56q58 0 106 26.5t76 75.5zM79 292h418q-11 80 -72.5 131t-142.5 51q-75 0 -134.5 -53.5t-68.5 -128.5z
M175 597l-24 49l246 139l30 -57z" />
    <glyph glyph-name="ecircumflex" unicode="&#xea;" 
d="M467 147h70q-33 -73 -101 -117t-149 -44q-113 0 -193.5 79.5t-80.5 191.5q0 113 78.5 195t191.5 82q117 0 196.5 -80t79.5 -196v-20h-480q4 -81 64.5 -137t141.5 -56q58 0 106 26.5t76 75.5zM79 292h418q-11 80 -72.5 131t-142.5 51q-75 0 -134.5 -53.5t-68.5 -128.5z
M486 617h-86l-109 82l-107 -82h-83l172 138h39z" />
    <glyph glyph-name="edieresis" unicode="&#xeb;" 
d="M467 147h70q-33 -73 -101 -117t-149 -44q-113 0 -193.5 79.5t-80.5 191.5q0 113 78.5 195t191.5 82q117 0 196.5 -80t79.5 -196v-20h-480q4 -81 64.5 -137t141.5 -56q58 0 106 26.5t76 75.5zM79 292h418q-11 80 -72.5 131t-142.5 51q-75 0 -134.5 -53.5t-68.5 -128.5z
M388 752v-125h-69v125h69zM261 752v-125h-69v125h69z" />
    <glyph glyph-name="igrave" unicode="&#xec;" horiz-adv-x="260" 
d="M171 525v-463h88v-62h-244v62h90v401h-88v62h154zM263 645l-25 -50l-247 134l28 58z" />
    <glyph glyph-name="iacute" unicode="&#xed;" horiz-adv-x="260" 
d="M171 525v-463h88v-62h-244v62h90v401h-88v62h154zM15 597l-24 49l246 139l30 -57z" />
    <glyph glyph-name="icircumflex" unicode="&#xee;" horiz-adv-x="260" 
d="M171 525v-463h88v-62h-244v62h90v401h-88v62h154zM326 617h-86l-109 82l-107 -82h-83l172 138h39z" />
    <glyph glyph-name="idieresis" unicode="&#xef;" horiz-adv-x="260" 
d="M171 525v-463h88v-62h-244v62h90v401h-88v62h154zM228 752v-125h-69v125h69zM101 752v-125h-69v125h69z" />
    <glyph glyph-name="eth" unicode="&#xf0;" 
d="M281 604l-147 -58l-48 37l138 53q-68 34 -111 46l74 32q55 -17 113 -49l127 49l45 -36l-119 -46q40 -28 74 -61t66.5 -77t51 -99.5t18.5 -114.5q0 -126 -79.5 -210t-195.5 -84q-114 0 -194.5 80t-80.5 193q0 115 81 195t196 80q68 0 132 -52q-49 67 -141 122zM288 51
q87 0 148 61.5t61 147.5t-60.5 147.5t-147.5 61.5t-148.5 -61t-61.5 -147t61 -148t148 -62z" />
    <glyph glyph-name="ntilde" unicode="&#xf1;" horiz-adv-x="660" 
d="M169 525v-92q24 48 72 74.5t104 26.5q50 0 103.5 -26.5t77.5 -74.5q29 -58 29 -137v-234h88v-62h-242v62h88v210q0 90 -25 133q-37 64 -137 64q-76 0 -123 -55q-23 -27 -29 -57t-6 -77v-218h88v-62h-242v62h88v401h-88v62h154zM454 736l37 -45q-43 -46 -99 -46
q-28 0 -66 17.5t-55 17.5q-32 0 -60 -30l-39 49q15 17 39.5 28t46.5 11t62 -17q40 -18 63 -18q45 0 71 33z" />
    <glyph glyph-name="ograve" unicode="&#xf2;" 
d="M288 -14q-114 0 -194.5 80t-80.5 193q0 115 81 195t196 80q112 0 192.5 -79.5t80.5 -190.5q0 -115 -80 -196.5t-195 -81.5zM288 51q87 0 148 61.5t61 147.5t-60.5 147.5t-147.5 61.5t-148.5 -61t-61.5 -147t61 -148t148 -62zM423 645l-25 -50l-247 134l28 58z" />
    <glyph glyph-name="oacute" unicode="&#xf3;" 
d="M288 -14q-114 0 -194.5 80t-80.5 193q0 115 81 195t196 80q112 0 192.5 -79.5t80.5 -190.5q0 -115 -80 -196.5t-195 -81.5zM288 51q87 0 148 61.5t61 147.5t-60.5 147.5t-147.5 61.5t-148.5 -61t-61.5 -147t61 -148t148 -62zM175 597l-24 49l246 139l30 -57z" />
    <glyph glyph-name="ocircumflex" unicode="&#xf4;" 
d="M288 -14q-114 0 -194.5 80t-80.5 193q0 115 81 195t196 80q112 0 192.5 -79.5t80.5 -190.5q0 -115 -80 -196.5t-195 -81.5zM288 51q87 0 148 61.5t61 147.5t-60.5 147.5t-147.5 61.5t-148.5 -61t-61.5 -147t61 -148t148 -62zM486 617h-86l-109 82l-107 -82h-83l172 138
h39z" />
    <glyph glyph-name="otilde" unicode="&#xf5;" 
d="M288 -14q-114 0 -194.5 80t-80.5 193q0 115 81 195t196 80q112 0 192.5 -79.5t80.5 -190.5q0 -115 -80 -196.5t-195 -81.5zM288 51q87 0 148 61.5t61 147.5t-60.5 147.5t-147.5 61.5t-148.5 -61t-61.5 -147t61 -148t148 -62zM414 736l37 -45q-43 -46 -99 -46
q-28 0 -66 17.5t-55 17.5q-32 0 -60 -30l-39 49q15 17 39.5 28t46.5 11t62 -17q40 -18 63 -18q45 0 71 33z" />
    <glyph glyph-name="odieresis" unicode="&#xf6;" 
d="M288 -14q-114 0 -194.5 80t-80.5 193q0 115 81 195t196 80q112 0 192.5 -79.5t80.5 -190.5q0 -115 -80 -196.5t-195 -81.5zM288 51q87 0 148 61.5t61 147.5t-60.5 147.5t-147.5 61.5t-148.5 -61t-61.5 -147t61 -148t148 -62zM388 752v-125h-69v125h69zM261 752v-125h-69
v125h69z" />
    <glyph glyph-name="divide" unicode="&#xf7;" horiz-adv-x="660" 
d="M582 327h-504v61h504v-61zM299 140v109h62v-109h-62zM299 575h62v-109h-62v109z" />
    <glyph glyph-name="oslash" unicode="&#xf8;" 
d="M150 23l-55 -77l-41 31l55 76q-95 83 -95 206q0 116 81 195.5t197 79.5q76 0 141 -37l56 78l41 -31l-56 -77q93 -86 93 -201q0 -118 -80 -199t-198 -81q-72 0 -139 37zM433 412l-241 -336q52 -24 100 -24q89 0 149 61t60 149q0 84 -68 150zM151 108l242 335
q-52 28 -105 28q-85 0 -146.5 -60.5t-61.5 -145.5q0 -89 71 -157z" />
    <glyph glyph-name="ugrave" unicode="&#xf9;" horiz-adv-x="640" 
d="M478 0v88q-25 -48 -72 -75t-103 -27q-55 0 -104 30t-75 72q-27 44 -27 129v246h-88v62h154v-283q0 -31 1.5 -49.5t9 -43.5t22.5 -45q47 -62 126 -56q75 6 118 57q25 29 31.5 58t6.5 77v223h-88v62h154v-463h89v-62h-155zM453 645l-25 -50l-247 134l28 58z" />
    <glyph glyph-name="uacute" unicode="&#xfa;" horiz-adv-x="640" 
d="M478 0v88q-25 -48 -72 -75t-103 -27q-55 0 -104 30t-75 72q-27 44 -27 129v246h-88v62h154v-283q0 -31 1.5 -49.5t9 -43.5t22.5 -45q47 -62 126 -56q75 6 118 57q25 29 31.5 58t6.5 77v223h-88v62h154v-463h89v-62h-155zM205 597l-24 49l246 139l30 -57z" />
    <glyph glyph-name="ucircumflex" unicode="&#xfb;" horiz-adv-x="640" 
d="M478 0v88q-25 -48 -72 -75t-103 -27q-55 0 -104 30t-75 72q-27 44 -27 129v246h-88v62h154v-283q0 -31 1.5 -49.5t9 -43.5t22.5 -45q47 -62 126 -56q75 6 118 57q25 29 31.5 58t6.5 77v223h-88v62h154v-463h89v-62h-155zM516 617h-86l-109 82l-107 -82h-83l172 138h39z
" />
    <glyph glyph-name="udieresis" unicode="&#xfc;" horiz-adv-x="640" 
d="M478 0v88q-25 -48 -72 -75t-103 -27q-55 0 -104 30t-75 72q-27 44 -27 129v246h-88v62h154v-283q0 -31 1.5 -49.5t9 -43.5t22.5 -45q47 -62 126 -56q75 6 118 57q25 29 31.5 58t6.5 77v223h-88v62h154v-463h89v-62h-155zM418 752v-125h-69v125h69zM291 752v-125h-69v125
h69z" />
    <glyph glyph-name="yacute" unicode="&#xfd;" horiz-adv-x="640" 
d="M541 463l-250 -596h86v-62h-243v62h88l54 129l-185 467h-84v62h240v-62h-83l148 -384l157 384h-82v62h238v-62h-84zM205 597l-24 49l246 139l30 -57z" />
    <glyph glyph-name="thorn" unicode="&#xfe;" horiz-adv-x="660" 
d="M169 714v-306h2q68 126 215 126q113 0 191 -80t78 -194t-78.5 -194t-190.5 -80q-68 0 -127 33.5t-88 91.5h-2v-244h88v-62h-242v62h88v785h-88v62h154zM378 48q86 0 148.5 62.5t62.5 149.5q0 95 -61.5 156t-145.5 56q-90 -5 -152 -61.5t-62 -149.5q0 -88 61.5 -150.5
t148.5 -62.5z" />
    <glyph glyph-name="ydieresis" unicode="&#xff;" horiz-adv-x="640" 
d="M541 463l-250 -596h86v-62h-243v62h88l54 129l-185 467h-84v62h240v-62h-83l148 -384l157 384h-82v62h238v-62h-84zM418 752v-125h-69v125h69zM291 752v-125h-69v125h69z" />
    <glyph glyph-name="dotlessi" unicode="&#x131;" horiz-adv-x="260" 
d="M171 525v-463h88v-62h-244v62h90v401h-88v62h154z" />
    <glyph glyph-name="Lslash" unicode="&#x141;" horiz-adv-x="520" 
d="M503 184v-184h-469v66h91v252l-101 -76v71l101 74v261h-91v66h254v-66h-91v-223l127 89v-69l-127 -90v-289h234v118h72z" />
    <glyph glyph-name="lslash" unicode="&#x142;" horiz-adv-x="280" 
d="M264 0h-242v62h88v294l-89 -69v64l89 70v231h-86v62h152v-250l89 69v-65l-89 -69v-337h88v-62z" />
    <glyph glyph-name="OE" unicode="&#x152;" horiz-adv-x="1120" 
d="M1031 532v116h-266v-258h261v-59h-261v-265h266v118h71v-184h-409v185q-41 -92 -122.5 -145.5t-181.5 -53.5q-96 0 -188.5 54.5t-138.5 144.5q-39 76 -39 180q0 100 41 173q49 88 135.5 141.5t190.5 53.5q102 0 183 -51t120 -144v176h410v-182h-72zM95 363
q0 -126 86 -215.5t211 -89.5q124 0 209.5 90t85.5 215q0 123 -85 210q-85 88 -209 88q-125 0 -212 -87q-86 -86 -86 -211z" />
    <glyph glyph-name="oe" unicode="&#x153;" horiz-adv-x="1060" 
d="M957 150h75q-30 -74 -100.5 -119t-153.5 -45q-80 0 -145.5 40t-96.5 111q-32 -70 -99 -110.5t-146 -40.5q-114 0 -195 80.5t-81 193.5q0 115 81.5 194.5t197.5 79.5q78 0 145 -42.5t97 -113.5q30 73 96 114.5t148 41.5q111 0 192.5 -80t81.5 -190v-24h-484
q4 -80 64 -134.5t141 -54.5q56 0 104 26t78 73zM571 294h412q-14 76 -71 126.5t-134 50.5q-79 0 -137.5 -50.5t-69.5 -126.5zM289 50q89 0 151 62t62 150q0 87 -62.5 148t-149.5 61q-89 0 -151 -62.5t-62 -150.5q0 -86 62.5 -147t149.5 -61z" />
    <glyph glyph-name="Scaron" unicode="&#x160;" horiz-adv-x="500" 
d="M434 543h-60q-7 59 -46 93t-96 34q-56 0 -96.5 -35t-40.5 -90q0 -64 47 -99q28 -21 119 -42q100 -23 143 -60q67 -55 67 -145q0 -78 -41 -129q-66 -84 -178 -84q-106 0 -162 84v-70h-60v192h60q7 -64 50 -102.5t109 -38.5q62 0 106 40t44 101q0 30 -10 53.5t-23.5 38
t-38 26t-44 17.5t-50.5 14q-5 1 -20.5 5t-21 6t-18.5 5.5t-20.5 6.5t-18 8t-19.5 10.5t-18 11.5q-74 54 -74 149q0 63 37 113q28 38 74.5 57.5t98.5 19.5q45 0 84.5 -20t56.5 -57v58h60v-171zM446 944l-175 -138h-39l-171 138h86l109 -82l107 82h83z" />
    <glyph glyph-name="scaron" unicode="&#x161;" horiz-adv-x="420" 
d="M368 392h-54q-1 40 -34 64q-32 24 -74 24t-72.5 -24t-30.5 -65q0 -23 10 -40t29 -27.5t35.5 -15.5t41.5 -10q81 -16 119 -39q65 -37 65 -115q0 -37 -23 -81q-18 -35 -62 -56t-91 -21q-100 0 -146 77v-63h-54v150h54q4 -48 42.5 -79.5t91.5 -31.5q46 0 80 28t34 72
q0 21 -7.5 37t-17 25t-28.5 16.5t-31.5 10.5t-35.5 8q-85 19 -118 39q-62 40 -62 111q0 55 27 90q22 28 60.5 43t78.5 15q82 0 119 -58v49h54v-133zM406 755l-175 -138h-39l-171 138h86l109 -82l107 82h83z" />
    <glyph glyph-name="Ydieresis" unicode="&#x178;" horiz-adv-x="680" 
d="M381 240v-174h91v-66h-255v66h92v174l-217 408h-85v66h249v-66h-88l177 -340l168 340h-92v66h250v-66h-85zM438 941v-125h-69v125h69zM311 941v-125h-69v125h69z" />
    <glyph glyph-name="Zcaron" unicode="&#x17d;" horiz-adv-x="520" 
d="M506 185v-185h-483v59l371 589h-297v-119h-62v185h447v-57l-372 -591h334v119h62zM456 944l-175 -138h-39l-171 138h86l109 -82l107 82h83z" />
    <glyph glyph-name="zcaron" unicode="&#x17e;" horiz-adv-x="420" 
d="M353 159h59v-159h-399v56l301 407h-226v-101h-59v163h368v-61l-295 -402h251v97zM406 755l-175 -138h-39l-171 138h86l109 -82l107 82h83z" />
    <glyph glyph-name="florin" unicode="&#x192;" 
d="M342 397l-69 -363q-9 -47 -24 -77t-49 -55q-51 -39 -137 -44l10 55q48 3 78 23q19 12 30.5 29.5t15.5 30t10 39.5l68 362h-87l9 50h88q3 14 11.5 63t18.5 83.5t25 56.5q54 76 177 83l-11 -56q-75 -3 -111 -54q-11 -16 -19 -49t-14.5 -73.5t-9.5 -53.5h89l-9 -50h-90z" />
    <glyph glyph-name="circumflex" unicode="&#x2c6;" horiz-adv-x="520" 
d="M456 617h-86l-109 82l-107 -82h-83l172 138h39z" />
    <glyph glyph-name="caron" unicode="&#x2c7;" horiz-adv-x="520" 
d="M456 755l-175 -138h-39l-171 138h86l109 -82l107 82h83z" />
    <glyph glyph-name="uni02C9" unicode="&#x2c9;" horiz-adv-x="460" 
d="M391 718v-55h-320v55h320z" />
    <glyph glyph-name="breve" unicode="&#x2d8;" horiz-adv-x="480" 
d="M75 753h48q3 -38 37.5 -58.5t75.5 -20.5t75.5 20.5t37.5 58.5h48q-1 -62 -49 -97t-112 -35q-65 0 -112.5 35t-48.5 97z" />
    <glyph glyph-name="dotaccent" unicode="&#x2d9;" horiz-adv-x="200" 
d="M138 752v-125h-67v125h67z" />
    <glyph glyph-name="ring" unicode="&#x2da;" horiz-adv-x="360" 
d="M179 581q-45 0 -76 31t-31 76q0 44 31.5 74.5t75.5 30.5q43 0 74 -31.5t31 -74.5q0 -44 -31 -75t-74 -31zM179 625q26 0 43.5 18.5t17.5 44.5t-18.5 43.5t-43.5 17.5q-27 0 -44.5 -18.5t-17.5 -44.5t18.5 -43.5t44.5 -17.5z" />
    <glyph glyph-name="ogonek" unicode="&#x2db;" horiz-adv-x="320" 
d="M241 -130v-48q-28 -11 -55 -11q-45 0 -73 28t-28 73q0 48 40 88h47q-36 -27 -36 -64q0 -30 18 -53t47 -23q14 0 40 10z" />
    <glyph glyph-name="tilde" unicode="&#x2dc;" horiz-adv-x="460" 
d="M354 736l37 -45q-43 -46 -99 -46q-28 0 -66 17.5t-55 17.5q-32 0 -60 -30l-39 49q15 17 39.5 28t46.5 11t62 -17q40 -18 63 -18q45 0 71 33z" />
    <glyph glyph-name="hungarumlaut" unicode="&#x2dd;" horiz-adv-x="460" 
d="M111 600l-40 22l135 188l48 -24zM239 595l-40 22l135 187l48 -24z" />
    <glyph glyph-name="uni03A9" unicode="&#x3a9;" horiz-adv-x="755" 
d="M213 54v3q-63 55 -104 139t-41 188q0 153 90 250t223 97q135 0 220 -100.5t85 -242.5q0 -107 -43 -194t-104 -137v-3h161v-54h-245v40q69 45 116.5 133t47.5 204q0 72 -26 138.5t-82 113.5t-131 47q-110 0 -177.5 -86.5t-67.5 -214.5q0 -110 48.5 -201.5t115.5 -133.5
v-40h-245v54h159z" />
    <glyph glyph-name="uni03BC" unicode="&#x3bc;" horiz-adv-x="640" 
d="M478 0v88h-2q-24 -48 -70 -75t-103 -27q-78 0 -140 55v-236h-66v658h-88v62h154v-295q0 -78 37.5 -130t121.5 -52q9 0 22 2t38.5 12.5t45 28t35 54t15.5 85.5v233h-88v62h154v-463h89v-62h-155z" />
    <glyph glyph-name="pi" unicode="&#x3c0;" horiz-adv-x="588" 
d="M559 478h-86v-326q0 -101 15 -152h-64q-17 30 -17 145v333h-200q-5 -114 -28 -262.5t-50 -215.5h-65q29 78 51 220.5t27 257.5q-82 0 -120 -14l-11 44q45 26 144 26h411z" />
    <glyph glyph-name="endash" unicode="&#x2013;" horiz-adv-x="500" 
d="M506 228h-512v66h512v-66z" />
    <glyph glyph-name="emdash" unicode="&#x2014;" horiz-adv-x="1000" 
d="M1006 228h-1012v66h1012v-66z" />
    <glyph glyph-name="quoteleft" unicode="&#x2018;" horiz-adv-x="200" 
d="M99 714l74 -183h-63l-74 183h63z" />
    <glyph glyph-name="quoteright" unicode="&#x2019;" horiz-adv-x="200" 
d="M99 531h-63l74 183h63z" />
    <glyph glyph-name="quotesinglbase" unicode="&#x201a;" horiz-adv-x="200" 
d="M99 -97h-63l74 184h63z" />
    <glyph glyph-name="quotedblleft" unicode="&#x201c;" horiz-adv-x="340" 
d="M99 714l74 -183h-63l-74 183h63zM228 714l74 -183h-63l-75 183h64z" />
    <glyph glyph-name="quotedblright" unicode="&#x201d;" horiz-adv-x="340" 
d="M228 531h-63l75 183h63zM99 531h-63l74 183h63z" />
    <glyph glyph-name="quotedblbase" unicode="&#x201e;" horiz-adv-x="340" 
d="M228 -97h-64l75 184h63zM99 -97h-63l74 184h63z" />
    <glyph glyph-name="dagger" unicode="&#x2020;" horiz-adv-x="560" 
d="M319 438v-570h-69v570h-214v55h214v221h69v-221h213v-55h-213z" />
    <glyph glyph-name="daggerdbl" unicode="&#x2021;" horiz-adv-x="560" 
d="M315 444v-123h212v-54h-212v-399h-70v399h-209v54h209v123h-209v54h209v216h70v-216h212v-54h-212z" />
    <glyph glyph-name="bullet" unicode="&#x2022;" horiz-adv-x="600" 
d="M459 536v-357h-318v357h318z" />
    <glyph glyph-name="ellipsis" unicode="&#x2026;" horiz-adv-x="1000" 
d="M201 109v-109h-69v109h69zM534 109v-109h-69v109h69zM867 109v-109h-69v109h69z" />
    <glyph glyph-name="perthousand" unicode="&#x2030;" horiz-adv-x="1200" 
d="M605 -13q-70 0 -117.5 49.5t-47.5 119.5q0 68 49 115t116 47q68 0 116.5 -48.5t48.5 -116.5q0 -69 -48 -117.5t-117 -48.5zM605 46q45 0 76 31.5t31 76.5q0 44 -31 75t-75 31t-76 -30t-32 -74q0 -46 31 -78t76 -32zM201 398q-70 0 -117.5 49.5t-47.5 119.5q0 68 49.5 115
t116.5 47t115.5 -48.5t48.5 -116.5q0 -69 -48 -117.5t-117 -48.5zM202 456q45 0 76 32t31 77q0 43 -31.5 74.5t-74.5 31.5q-44 0 -76.5 -30t-32.5 -74q0 -46 31 -78.5t77 -32.5zM994 -13q-69 0 -117 49.5t-48 119.5q0 68 49.5 115t116.5 47q68 0 116.5 -48.5t48.5 -116.5
t-48.5 -117t-117.5 -49zM995 46q45 0 76 31.5t31 76.5q0 44 -31 75t-75 31t-76.5 -30t-32.5 -74q0 -46 31 -78t77 -32zM275 0h-58l317 714h57z" />
    <glyph glyph-name="guilsinglleft" unicode="&#x2039;" horiz-adv-x="200" 
d="M151 69l-115 172v40l115 171l15 -56l-85 -137l85 -136z" />
    <glyph glyph-name="guilsinglright" unicode="&#x203a;" horiz-adv-x="200" 
d="M50 69l-14 54l85 136l-85 137l14 56l116 -171v-40z" />
    <glyph glyph-name="fraction" unicode="&#x2044;" horiz-adv-x="60" 
d="M-96 0h-58l317 714h57z" />
    <glyph glyph-name="Euro" unicode="&#x20ac;" 
d="M411 290h-264q10 -91 43 -152q52 -92 149 -92q60 0 103 35.5t55 105.5h64q-14 -98 -72 -149.5t-152 -51.5q-130 0 -200 114q-48 80 -60 190h-77v45h74q-1 10 -1 28q0 22 1 33h-74v44h78q14 107 61 181q71 112 197 112q112 0 166 -103v84h51v-174h-67q-45 133 -150 133
q-93 0 -145 -92q-32 -55 -43 -141h263v-44h-267q-1 -11 -1 -33q0 -19 1 -28h267v-45z" />
    <glyph glyph-name="afii61289" unicode="&#x2113;" horiz-adv-x="498" 
d="M440 146l33 -28q-67 -127 -190 -127q-82 0 -124 55t-44 140v14l-61 -50l-22 39q72 62 82 72v287q0 130 45 187t109 57q62 0 94 -46t32 -118q0 -173 -218 -383v-32q1 -86 35 -127.5t85 -41.5q46 0 83.5 30t60.5 72zM176 555v-244q80 86 125 163t45 152q0 116 -79 116
q-36 0 -63.5 -45.5t-27.5 -141.5z" />
    <glyph glyph-name="trademark" unicode="&#x2122;" horiz-adv-x="980" 
d="M846 714v-407h-63v350l-141 -350h-38l-138 350v-350h-64v407h104l116 -287l122 287h102zM330 714v-57h-129v-350h-71v350h-130v57h330z" />
    <glyph glyph-name="Omega" unicode="&#x2126;" horiz-adv-x="755" 
d="M213 54v3q-63 55 -104 139t-41 188q0 153 90 250t223 97q135 0 220 -100.5t85 -242.5q0 -107 -43 -194t-104 -137v-3h161v-54h-245v40q69 45 116.5 133t47.5 204q0 72 -26 138.5t-82 113.5t-131 47q-110 0 -177.5 -86.5t-67.5 -214.5q0 -110 48.5 -201.5t115.5 -133.5
v-40h-245v54h159z" />
    <glyph glyph-name="estimated" unicode="&#x212e;" horiz-adv-x="901" 
d="M865 349h-672q-6 0 -6 -4v-204q0 -10 9 -23q107 -110 254 -110q161 0 268 123h59q-57 -67 -143 -105.5t-185 -38.5q-171 0 -292.5 109t-121.5 263q0 155 121.5 264.5t292.5 109.5q173 0 294.5 -109.5t121.5 -264.5v-10zM712 376v204q0 15 -10 24q-108 106 -252 106
q-146 0 -253 -109q-10 -12 -10 -25v-200q0 -7 6 -7h515q4 0 4 7z" />
    <glyph glyph-name="partialdiff" unicode="&#x2202;" horiz-adv-x="562" 
d="M106 700l-25 47q70 58 170 58q107 0 182.5 -101t75.5 -289q0 -186 -69.5 -305.5t-197.5 -119.5q-94 0 -145.5 70.5t-51.5 166.5q0 116 65 188.5t156 72.5q65 0 111.5 -34.5t65.5 -69.5h1q1 13 1 48q0 141 -58.5 229.5t-141.5 88.5q-79 0 -139 -50zM247 45h1q75 0 125 78
t62 192q-14 43 -58 81.5t-102 38.5q-67 0 -115.5 -60.5t-48.5 -145.5q0 -81 37.5 -132.5t98.5 -51.5z" />
    <glyph glyph-name="Delta" unicode="&#x2206;" horiz-adv-x="674" 
d="M33 0v48l268 692h75l264 -692v-48h-607zM100 54h469l-160 415q-7 21 -35.5 94t-36.5 100h-4q-6 -22 -32 -91t-32 -86z" />
    <glyph glyph-name="product" unicode="&#x220f;" horiz-adv-x="724" 
d="M696 660h-117v-759h-64v759h-307v-759h-65v759h-116v59h669v-59z" />
    <glyph glyph-name="summation" unicode="&#x2211;" horiz-adv-x="576" 
d="M552 -99h-529v44l287 363l-273 366v45h499v-57h-407v-3l257 -342l-276 -351v-3h442v-62z" />
    <glyph glyph-name="minus" unicode="&#x2212;" horiz-adv-x="660" 
d="M581 327h-503v61h503v-61z" />
    <glyph glyph-name="uni2215" unicode="&#x2215;" horiz-adv-x="60" 
d="M-96 0h-58l317 714h57z" />
    <glyph glyph-name="uni2219" unicode="&#x2219;" horiz-adv-x="300" 
d="M185 413v-109h-69v109h69z" />
    <glyph glyph-name="radical" unicode="&#x221a;" horiz-adv-x="590" 
d="M589 853l-231 -1009h-61l-169 484l-78 -29l-14 41l134 52l139 -397q13 -52 17 -72h1q3 20 14 70l197 860h51z" />
    <glyph glyph-name="infinity" unicode="&#x221e;" horiz-adv-x="807" 
d="M753 300v-1q0 -72 -47 -117t-110 -45q-47 0 -89 29t-103 96q-27 -30 -43.5 -46.5t-42.5 -38t-53.5 -31t-57.5 -9.5q-63 0 -108.5 46t-45.5 112q0 70 46 115.5t115 45.5q53 0 98.5 -33.5t95.5 -92.5q62 69 92 91q49 35 104 35q67 0 108 -43.5t41 -112.5zM213 180h1
q17 0 34 6t29 12.5t30 22t25.5 23t25.5 27t22 23.5q-2 3 -14 17t-15.5 17.5t-14.5 16t-16 16.5t-16 14t-17.5 14t-17.5 10.5t-20 9t-20.5 4.5t-22.5 2q-48 0 -77 -35.5t-28 -85.5q0 -48 31 -81t81 -33zM599 415h-1q-25 0 -52.5 -14.5t-43 -28.5t-41 -41.5t-30.5 -32.5
q62 -66 96 -92t73 -26q48 0 77 35t29 81q0 55 -30 87t-77 32z" />
    <glyph glyph-name="integral" unicode="&#x222b;" horiz-adv-x="362" 
d="M346 862l-12 -46q-17 11 -39 11q-34 0 -53 -24q-37 -42 -37 -186q0 -79 7 -260t7 -263q0 -142 -46 -209q-31 -48 -96 -48q-36 0 -65 17l13 48q29 -13 48 -13q29 0 48 24q38 47 38 182q0 83 -7 266t-7 262q0 85 12.5 135.5t41.5 79.5q36 39 92 39q34 0 55 -15z" />
    <glyph glyph-name="approxequal" unicode="&#x2248;" horiz-adv-x="590" 
d="M511 440l28 -25q-50 -96 -132 -96q-20 0 -42 6.5t-35 13t-47 24.5q-61 36 -99 36q-33 0 -56.5 -20t-48.5 -58l-30 24q52 97 142 97q18 0 37 -5.5t29.5 -10.5t29 -15.5t22.5 -12.5t20 -10.5t21 -11t17 -7t22 -6t21 -1.5q31 0 54.5 18.5t46.5 59.5zM511 267l28 -25
q-50 -96 -132 -96q-20 0 -42 6.5t-35 13t-47 24.5q-61 36 -99 36q-34 0 -57.5 -20.5t-47.5 -58.5l-30 24q24 46 61 72t81 26q18 0 37 -5t29.5 -10t29 -15.5t22.5 -12.5t16.5 -9t17 -9.5t15 -7t17 -6.5t16 -3.5t19.5 -1.5q32 0 54.5 18.5t46.5 59.5z" />
    <glyph glyph-name="notequal" unicode="&#x2260;" horiz-adv-x="590" 
d="M415 519l-48 -105h168v-44h-187l-72 -155h259v-44h-278l-57 -124l-36 17l50 107h-160v44h179l72 155h-251v44h269l57 122z" />
    <glyph glyph-name="lessequal" unicode="&#x2264;" horiz-adv-x="590" 
d="M533 97l-473 235v46l473 234v-54l-424 -201v-2l424 -204v-54zM535 8h-481v46h481v-46z" />
    <glyph glyph-name="greaterequal" unicode="&#x2265;" horiz-adv-x="590" 
d="M61 612l472 -234v-46l-472 -235v54l422 203v2l-422 202v54zM535 8h-480v46h480v-46z" />
    <glyph glyph-name="lozenge" unicode="&#x25ca;" horiz-adv-x="591" 
d="M532 359l-211 -406h-54l-209 406l211 407h54zM471 358l-156 300q-3 7 -20 51h-2q-11 -33 -20 -51l-155 -297l157 -302q13 -27 19 -51h3q10 34 19 51z" />
    </font>
</defs>
</svg>
